<mxfile host="app.diagrams.net" modified="2022-06-14T14:24:08.282Z" agent="5.0 (Windows NT 10.0; Win64; x64) AppleWebKit/537.36 (KHTML, like Gecko) Chrome/102.0.5005.124 Safari/537.36 Edg/102.0.1245.41" etag="J4W6OK-h2E7iUQrFDeG9" version="19.0.3" type="github" pages="5">
  <diagram id="C5RBs43oDa-KdzZeNtuy" name="Entity">
    <mxGraphModel dx="2665" dy="1787" grid="1" gridSize="10" guides="1" tooltips="1" connect="1" arrows="1" fold="1" page="1" pageScale="1" pageWidth="827" pageHeight="1169" math="0" shadow="0">
      <root>
        <mxCell id="WIyWlLk6GJQsqaUBKTNV-0" />
        <mxCell id="WIyWlLk6GJQsqaUBKTNV-1" parent="WIyWlLk6GJQsqaUBKTNV-0" />
        <mxCell id="NeBYNHLifacWEhn9Xsfm-3" value="Box Legend&lt;br&gt;&lt;br&gt;&lt;br&gt;&lt;br&gt;&lt;br&gt;&lt;br&gt;&lt;br&gt;&lt;br&gt;&lt;br&gt;&lt;br&gt;&lt;br&gt;&lt;br&gt;&lt;br&gt;&lt;br&gt;&lt;br&gt;&lt;br&gt;&lt;br&gt;&lt;br&gt;&lt;br&gt;" style="rounded=0;whiteSpace=wrap;html=1;align=left;" parent="WIyWlLk6GJQsqaUBKTNV-1" vertex="1">
          <mxGeometry x="-985" y="-1150" width="301" height="290" as="geometry" />
        </mxCell>
        <mxCell id="zkfFHV4jXpPFQw0GAbJ--0" value="IEntity" style="swimlane;fontStyle=2;align=center;verticalAlign=top;childLayout=stackLayout;horizontal=1;startSize=26;horizontalStack=0;resizeParent=1;resizeLast=0;collapsible=1;marginBottom=0;rounded=0;shadow=0;strokeWidth=1;fillColor=#ffe6cc;strokeColor=#d79b00;" parent="WIyWlLk6GJQsqaUBKTNV-1" vertex="1">
          <mxGeometry x="-1630" y="-820" width="330" height="206" as="geometry">
            <mxRectangle x="220" y="120" width="160" height="26" as="alternateBounds" />
          </mxGeometry>
        </mxCell>
        <mxCell id="5qYCSeuJUYiYYrYhOCEf-12" value="UUID getId()&#xa;&#xa;void addComponent(unique_ptr&lt;T&gt; component)&#xa;void removeComponent&lt;T&gt;()&#xa;bool hasComponent&lt;T&gt;()&#xa;T* getComponent()&#xa;&#xa;&#xa;" style="text;align=left;verticalAlign=top;spacingLeft=4;spacingRight=4;overflow=hidden;rotatable=0;points=[[0,0.5],[1,0.5]];portConstraint=eastwest;strokeColor=#d79b00;fillColor=#ffe6cc;" parent="zkfFHV4jXpPFQw0GAbJ--0" vertex="1">
          <mxGeometry y="26" width="330" height="120" as="geometry" />
        </mxCell>
        <mxCell id="NeBYNHLifacWEhn9Xsfm-23" value="&lt;span style=&quot;&quot;&gt;UUID&lt;/span&gt;&lt;br style=&quot;&quot;&gt;&lt;span style=&quot;&quot;&gt;std::unordered_map&amp;lt;type, unique_ptr&amp;lt;Component&amp;gt;&amp;gt;&lt;/span&gt;" style="rounded=1;whiteSpace=wrap;html=1;labelBackgroundColor=none;fillColor=#ffe6cc;strokeColor=#d79b00;" parent="zkfFHV4jXpPFQw0GAbJ--0" vertex="1">
          <mxGeometry y="146" width="330" height="60" as="geometry" />
        </mxCell>
        <mxCell id="Av1kvA5OVr4Fn_ihZBVM-0" value="" style="group" parent="WIyWlLk6GJQsqaUBKTNV-1" vertex="1" connectable="0">
          <mxGeometry x="-1644" y="-1000" width="660" height="140" as="geometry" />
        </mxCell>
        <mxCell id="Av1kvA5OVr4Fn_ihZBVM-1" value="Color Legend&lt;br&gt;&lt;br&gt;&lt;br&gt;&lt;br&gt;&lt;br&gt;&lt;br&gt;&lt;br&gt;&lt;br&gt;" style="rounded=0;whiteSpace=wrap;html=1;align=left;" parent="Av1kvA5OVr4Fn_ihZBVM-0" vertex="1">
          <mxGeometry width="660" height="140" as="geometry" />
        </mxCell>
        <mxCell id="Av1kvA5OVr4Fn_ihZBVM-2" value="under development" style="rounded=0;whiteSpace=wrap;html=1;fillColor=#ffe6cc;strokeColor=#d79b00;" parent="Av1kvA5OVr4Fn_ihZBVM-0" vertex="1">
          <mxGeometry x="345" y="60" width="120" height="60" as="geometry" />
        </mxCell>
        <mxCell id="Av1kvA5OVr4Fn_ihZBVM-3" value="designed" style="rounded=0;whiteSpace=wrap;html=1;fillColor=#dae8fc;strokeColor=#6c8ebf;" parent="Av1kvA5OVr4Fn_ihZBVM-0" vertex="1">
          <mxGeometry x="180" y="60" width="120" height="60" as="geometry" />
        </mxCell>
        <mxCell id="Av1kvA5OVr4Fn_ihZBVM-4" value="developped" style="rounded=0;whiteSpace=wrap;html=1;fillColor=#e1d5e7;strokeColor=#9673a6;" parent="Av1kvA5OVr4Fn_ihZBVM-0" vertex="1">
          <mxGeometry x="530" y="60" width="120" height="60" as="geometry" />
        </mxCell>
        <mxCell id="Av1kvA5OVr4Fn_ihZBVM-5" value="lack of design" style="rounded=0;whiteSpace=wrap;html=1;fillColor=#d5e8d4;strokeColor=#82b366;" parent="Av1kvA5OVr4Fn_ihZBVM-0" vertex="1">
          <mxGeometry x="20" y="60" width="120" height="60" as="geometry" />
        </mxCell>
        <mxCell id="NeBYNHLifacWEhn9Xsfm-9" value="Entity Name" style="swimlane;fontStyle=0;align=center;verticalAlign=top;childLayout=stackLayout;horizontal=1;startSize=29;horizontalStack=0;resizeParent=1;resizeLast=0;collapsible=1;marginBottom=0;rounded=0;shadow=0;strokeWidth=1;fillColor=#f5f5f5;strokeColor=#666666;fontColor=#333333;" parent="WIyWlLk6GJQsqaUBKTNV-1" vertex="1">
          <mxGeometry x="-964" y="-1120" width="260" height="230" as="geometry">
            <mxRectangle x="130" y="380" width="160" height="26" as="alternateBounds" />
          </mxGeometry>
        </mxCell>
        <mxCell id="NeBYNHLifacWEhn9Xsfm-10" value="&lt;div style=&quot;text-align: left;&quot;&gt;&lt;span style=&quot;background-color: initial;&quot;&gt;List of components expected to be added in the constructor&lt;/span&gt;&lt;/div&gt;" style="shape=process;whiteSpace=wrap;html=1;backgroundOutline=1;fillColor=#f5f5f5;strokeColor=#666666;fontColor=#333333;" parent="NeBYNHLifacWEhn9Xsfm-9" vertex="1">
          <mxGeometry y="29" width="260" height="81" as="geometry" />
        </mxCell>
        <mxCell id="NeBYNHLifacWEhn9Xsfm-20" value="Liste des attributs&lt;br&gt;get() ou set() peuvent être ajouté pour indique si ces accesseurs doivent être présent" style="rounded=1;whiteSpace=wrap;html=1;fillColor=#f5f5f5;strokeColor=#666666;fontColor=#333333;" parent="NeBYNHLifacWEhn9Xsfm-9" vertex="1">
          <mxGeometry y="110" width="260" height="60" as="geometry" />
        </mxCell>
        <mxCell id="NeBYNHLifacWEhn9Xsfm-21" value="Liste des fonctions attendues" style="rounded=0;whiteSpace=wrap;html=1;fillColor=#f5f5f5;strokeColor=#666666;fontColor=#333333;" parent="NeBYNHLifacWEhn9Xsfm-9" vertex="1">
          <mxGeometry y="170" width="260" height="60" as="geometry" />
        </mxCell>
        <mxCell id="uIyoUYYSwOO941BE2mLO-1" value="&lt;b&gt;class parent communes à tous&lt;/b&gt;" style="rounded=0;whiteSpace=wrap;html=1;fillColor=#ffe6cc;strokeColor=#d79b00;" parent="WIyWlLk6GJQsqaUBKTNV-1" vertex="1">
          <mxGeometry x="-1630" y="-840" width="207" height="20" as="geometry" />
        </mxCell>
        <mxCell id="KbiJHUn6w6BJ0wcw7OjV-0" value="FieldEnrage" style="swimlane;fontStyle=0;align=center;verticalAlign=top;childLayout=stackLayout;horizontal=1;startSize=26;horizontalStack=0;resizeParent=1;resizeLast=0;collapsible=1;marginBottom=0;rounded=0;shadow=0;strokeWidth=1;fillColor=#dae8fc;strokeColor=#6c8ebf;" parent="WIyWlLk6GJQsqaUBKTNV-1" vertex="1">
          <mxGeometry x="-1631" y="-100" width="210" height="150" as="geometry">
            <mxRectangle x="130" y="380" width="160" height="26" as="alternateBounds" />
          </mxGeometry>
        </mxCell>
        <mxCell id="KbiJHUn6w6BJ0wcw7OjV-1" value="LifeTime" style="shape=process;whiteSpace=wrap;html=1;backgroundOutline=1;labelBackgroundColor=none;fillColor=#dae8fc;strokeColor=#6c8ebf;" parent="KbiJHUn6w6BJ0wcw7OjV-0" vertex="1">
          <mxGeometry y="26" width="210" height="60" as="geometry" />
        </mxCell>
        <mxCell id="KbiJHUn6w6BJ0wcw7OjV-2" value="private :&lt;br&gt;void onEndOfLifeTrigger();" style="rounded=0;whiteSpace=wrap;html=1;fillColor=#dae8fc;strokeColor=#6c8ebf;" parent="KbiJHUn6w6BJ0wcw7OjV-0" vertex="1">
          <mxGeometry y="86" width="210" height="64" as="geometry" />
        </mxCell>
        <mxCell id="XCeZAzWDpX-pNVNhaEy6-0" value="&lt;h1&gt;Entity&lt;/h1&gt;&lt;p&gt;Un objet &lt;b&gt;Entity &lt;/b&gt;est un conteneur d&#39;objets &lt;b&gt;Components&lt;/b&gt;&lt;/p&gt;&lt;p&gt;Toutes les classes représentant un objet &lt;b&gt;Entity &lt;/b&gt;doivent héritées de l&#39;interface &lt;b&gt;IEntity&lt;/b&gt;&lt;/p&gt;&lt;p&gt;Une sous-classe de l&#39;interface &lt;b&gt;IEntity &lt;/b&gt;ne doit pas avoir d&#39;autres attributs que ceux hérité.&lt;br&gt;Les nom de &lt;b&gt;Components &lt;/b&gt;indiqué dans le graphe sont à titre indicatif de ce que le constructeur de la classe associé est supposé ajouter à l&#39;aide de la méthode &lt;b&gt;IEntity-&amp;gt;addComponent()&lt;/b&gt;&lt;/p&gt;" style="text;html=1;strokeColor=#0e8088;fillColor=#b0e3e6;spacing=5;spacingTop=-20;whiteSpace=wrap;overflow=hidden;rounded=0;" parent="WIyWlLk6GJQsqaUBKTNV-1" vertex="1">
          <mxGeometry x="-1644" y="-1150" width="659" height="150" as="geometry" />
        </mxCell>
        <mxCell id="ZkXT9lSZ9WAF-JELVPfN-1" value="" style="group" parent="WIyWlLk6GJQsqaUBKTNV-1" vertex="1" connectable="0">
          <mxGeometry x="-1427.5" y="-520" width="327" height="272" as="geometry" />
        </mxCell>
        <mxCell id="5qYCSeuJUYiYYrYhOCEf-0" value="Bomb" style="swimlane;fontStyle=0;align=center;verticalAlign=top;childLayout=stackLayout;horizontal=1;startSize=26;horizontalStack=0;resizeParent=1;resizeLast=0;collapsible=1;marginBottom=0;rounded=0;shadow=0;strokeWidth=1;fillColor=#dae8fc;strokeColor=#6c8ebf;container=1;" parent="ZkXT9lSZ9WAF-JELVPfN-1" vertex="1">
          <mxGeometry x="62" width="235" height="164" as="geometry">
            <mxRectangle x="340" y="380" width="170" height="26" as="alternateBounds" />
          </mxGeometry>
        </mxCell>
        <mxCell id="-kziB6kyhPgsXL_CWFJa-0" value="&lt;span style=&quot;text-align: left;&quot;&gt;BombPower&lt;/span&gt;&lt;br&gt;LifeTime&lt;br&gt;Sprite&lt;br&gt;Position&lt;br&gt;HitBox" style="shape=process;whiteSpace=wrap;html=1;backgroundOutline=1;labelBackgroundColor=none;fillColor=#dae8fc;strokeColor=#6c8ebf;" parent="5qYCSeuJUYiYYrYhOCEf-0" vertex="1">
          <mxGeometry y="26" width="235" height="84" as="geometry" />
        </mxCell>
        <mxCell id="5qYCSeuJUYiYYrYhOCEf-17" value="private :&lt;br&gt;(endOfLife) void turnIntoBlaze()" style="rounded=0;whiteSpace=wrap;html=1;fillColor=#dae8fc;strokeColor=#6c8ebf;" parent="5qYCSeuJUYiYYrYhOCEf-0" vertex="1">
          <mxGeometry y="110" width="235" height="54" as="geometry" />
        </mxCell>
        <mxCell id="5qYCSeuJUYiYYrYhOCEf-4" value="ClassicBomb" style="swimlane;fontStyle=0;align=center;verticalAlign=top;childLayout=stackLayout;horizontal=1;startSize=26;horizontalStack=0;resizeParent=1;resizeLast=0;collapsible=1;marginBottom=0;rounded=0;shadow=0;strokeWidth=1;fillColor=#dae8fc;strokeColor=#6c8ebf;" parent="ZkXT9lSZ9WAF-JELVPfN-1" vertex="1">
          <mxGeometry y="220" width="100" height="52" as="geometry">
            <mxRectangle x="340" y="380" width="170" height="26" as="alternateBounds" />
          </mxGeometry>
        </mxCell>
        <mxCell id="5qYCSeuJUYiYYrYhOCEf-13" value="SpikeBomb" style="swimlane;fontStyle=0;align=center;verticalAlign=top;childLayout=stackLayout;horizontal=1;startSize=26;horizontalStack=0;resizeParent=1;resizeLast=0;collapsible=1;marginBottom=0;rounded=0;shadow=0;strokeWidth=1;fillColor=#dae8fc;strokeColor=#6c8ebf;" parent="ZkXT9lSZ9WAF-JELVPfN-1" vertex="1">
          <mxGeometry x="247" y="220" width="80" height="52" as="geometry">
            <mxRectangle x="340" y="380" width="170" height="26" as="alternateBounds" />
          </mxGeometry>
        </mxCell>
        <mxCell id="5qYCSeuJUYiYYrYhOCEf-23" value="" style="endArrow=classic;html=1;rounded=0;entryX=0.5;entryY=1;entryDx=0;entryDy=0;exitX=0.5;exitY=0;exitDx=0;exitDy=0;fillColor=#dae8fc;strokeColor=#6c8ebf;" parent="ZkXT9lSZ9WAF-JELVPfN-1" source="5qYCSeuJUYiYYrYhOCEf-4" target="5qYCSeuJUYiYYrYhOCEf-0" edge="1">
          <mxGeometry width="50" height="50" relative="1" as="geometry">
            <mxPoint x="7" y="150" as="sourcePoint" />
            <mxPoint x="57" y="100" as="targetPoint" />
          </mxGeometry>
        </mxCell>
        <mxCell id="5qYCSeuJUYiYYrYhOCEf-24" value="" style="endArrow=classic;html=1;rounded=0;entryX=0.5;entryY=1;entryDx=0;entryDy=0;exitX=0.5;exitY=0;exitDx=0;exitDy=0;fillColor=#dae8fc;strokeColor=#6c8ebf;" parent="ZkXT9lSZ9WAF-JELVPfN-1" source="5qYCSeuJUYiYYrYhOCEf-13" target="5qYCSeuJUYiYYrYhOCEf-0" edge="1">
          <mxGeometry width="50" height="50" relative="1" as="geometry">
            <mxPoint x="147" y="258" as="sourcePoint" />
            <mxPoint x="197" y="220.00000000000023" as="targetPoint" />
          </mxGeometry>
        </mxCell>
        <mxCell id="9gQlc3UvzQQbZU1a2G_2-1" style="edgeStyle=orthogonalEdgeStyle;rounded=0;orthogonalLoop=1;jettySize=auto;html=1;entryX=0.5;entryY=1;entryDx=0;entryDy=0;fillColor=#dae8fc;strokeColor=#6c8ebf;" parent="ZkXT9lSZ9WAF-JELVPfN-1" source="5qYCSeuJUYiYYrYhOCEf-25" target="5qYCSeuJUYiYYrYhOCEf-0" edge="1">
          <mxGeometry relative="1" as="geometry" />
        </mxCell>
        <mxCell id="5qYCSeuJUYiYYrYhOCEf-25" value="SkullBomb" style="swimlane;fontStyle=0;align=center;verticalAlign=top;childLayout=stackLayout;horizontal=1;startSize=26;horizontalStack=0;resizeParent=1;resizeLast=0;collapsible=1;marginBottom=0;rounded=0;shadow=0;strokeWidth=1;fillColor=#dae8fc;strokeColor=#6c8ebf;" parent="ZkXT9lSZ9WAF-JELVPfN-1" vertex="1">
          <mxGeometry x="129.5" y="220" width="100" height="52" as="geometry">
            <mxRectangle x="340" y="380" width="170" height="26" as="alternateBounds" />
          </mxGeometry>
        </mxCell>
        <mxCell id="ZkXT9lSZ9WAF-JELVPfN-2" value="" style="group" parent="WIyWlLk6GJQsqaUBKTNV-1" vertex="1" connectable="0">
          <mxGeometry x="-1631" y="-520" width="170" height="365" as="geometry" />
        </mxCell>
        <mxCell id="5qYCSeuJUYiYYrYhOCEf-31" value="Knight" style="swimlane;fontStyle=0;align=center;verticalAlign=top;childLayout=stackLayout;horizontal=1;startSize=26;horizontalStack=0;resizeParent=1;resizeLast=0;collapsible=1;marginBottom=0;rounded=0;shadow=0;strokeWidth=1;fillColor=#dae8fc;strokeColor=#6c8ebf;" parent="ZkXT9lSZ9WAF-JELVPfN-2" vertex="1">
          <mxGeometry y="245" width="170" height="120" as="geometry">
            <mxRectangle x="130" y="380" width="160" height="26" as="alternateBounds" />
          </mxGeometry>
        </mxCell>
        <mxCell id="Asf3EDTbDIg-MHWluMpm-0" value="&lt;span style=&quot;text-align: left;&quot;&gt;BackPack&lt;/span&gt;" style="shape=process;whiteSpace=wrap;html=1;backgroundOutline=1;fillColor=#dae8fc;strokeColor=#6c8ebf;" parent="5qYCSeuJUYiYYrYhOCEf-31" vertex="1">
          <mxGeometry y="26" width="170" height="60" as="geometry" />
        </mxCell>
        <mxCell id="5qYCSeuJUYiYYrYhOCEf-33" value="IBomb dropBomb()" style="text;align=left;verticalAlign=top;spacingLeft=4;spacingRight=4;overflow=hidden;rotatable=0;points=[[0,0.5],[1,0.5]];portConstraint=eastwest;fillColor=#dae8fc;strokeColor=#6c8ebf;" parent="5qYCSeuJUYiYYrYhOCEf-31" vertex="1">
          <mxGeometry y="86" width="170" height="34" as="geometry" />
        </mxCell>
        <mxCell id="1hP_M07iAMLnP-3DDAK9-29" value="ICharacter" style="swimlane;fontStyle=0;align=center;verticalAlign=top;childLayout=stackLayout;horizontal=1;startSize=29;horizontalStack=0;resizeParent=1;resizeLast=0;collapsible=1;marginBottom=0;rounded=0;shadow=0;strokeWidth=1;fillColor=#dae8fc;strokeColor=#6c8ebf;" parent="ZkXT9lSZ9WAF-JELVPfN-2" vertex="1">
          <mxGeometry x="5" width="160" height="230" as="geometry">
            <mxRectangle x="130" y="380" width="160" height="26" as="alternateBounds" />
          </mxGeometry>
        </mxCell>
        <mxCell id="NeBYNHLifacWEhn9Xsfm-0" value="&lt;span style=&quot;text-align: left;&quot;&gt;Health&lt;/span&gt;&lt;br&gt;Position&lt;br&gt;Orientation&lt;br&gt;MoveSpeed&lt;br&gt;AnimatedSprite&lt;br&gt;&lt;span style=&quot;&quot;&gt;HitBox&lt;br&gt;&lt;/span&gt;InputMapping&lt;span style=&quot;&quot;&gt;&lt;br&gt;&lt;/span&gt;" style="shape=process;whiteSpace=wrap;html=1;backgroundOutline=1;fillColor=#dae8fc;strokeColor=#6c8ebf;" parent="1hP_M07iAMLnP-3DDAK9-29" vertex="1">
          <mxGeometry y="29" width="160" height="141" as="geometry" />
        </mxCell>
        <mxCell id="OOfAImMTtNJpo4I0bIWI-0" value="private :&lt;br&gt;void deathTriggered();" style="rounded=0;whiteSpace=wrap;html=1;fillColor=#dae8fc;strokeColor=#6c8ebf;" parent="1hP_M07iAMLnP-3DDAK9-29" vertex="1">
          <mxGeometry y="170" width="160" height="60" as="geometry" />
        </mxCell>
        <mxCell id="1hP_M07iAMLnP-3DDAK9-28" style="edgeStyle=orthogonalEdgeStyle;rounded=0;orthogonalLoop=1;jettySize=auto;html=1;" parent="ZkXT9lSZ9WAF-JELVPfN-2" source="5qYCSeuJUYiYYrYhOCEf-31" target="OOfAImMTtNJpo4I0bIWI-0" edge="1">
          <mxGeometry relative="1" as="geometry">
            <mxPoint x="160" y="200" as="targetPoint" />
          </mxGeometry>
        </mxCell>
        <mxCell id="ZkXT9lSZ9WAF-JELVPfN-3" value="" style="group" parent="WIyWlLk6GJQsqaUBKTNV-1" vertex="1" connectable="0">
          <mxGeometry x="-1551" y="-100" width="734" height="447.5" as="geometry" />
        </mxCell>
        <mxCell id="5qYCSeuJUYiYYrYhOCEf-42" value="PowerUp" style="swimlane;fontStyle=0;align=center;verticalAlign=top;childLayout=stackLayout;horizontal=1;startSize=29;horizontalStack=0;resizeParent=1;resizeLast=0;collapsible=1;marginBottom=0;rounded=0;shadow=0;strokeWidth=1;fillColor=#dae8fc;strokeColor=#6c8ebf;" parent="ZkXT9lSZ9WAF-JELVPfN-3" vertex="1">
          <mxGeometry x="196" y="407.5" width="80" height="40" as="geometry">
            <mxRectangle x="130" y="380" width="160" height="26" as="alternateBounds" />
          </mxGeometry>
        </mxCell>
        <mxCell id="5qYCSeuJUYiYYrYhOCEf-47" value="SpeedUp" style="swimlane;fontStyle=0;align=center;verticalAlign=top;childLayout=stackLayout;horizontal=1;startSize=29;horizontalStack=0;resizeParent=1;resizeLast=0;collapsible=1;marginBottom=0;rounded=0;shadow=0;strokeWidth=1;fillColor=#dae8fc;strokeColor=#6c8ebf;" parent="ZkXT9lSZ9WAF-JELVPfN-3" vertex="1">
          <mxGeometry x="100" y="407.5" width="80" height="40" as="geometry">
            <mxRectangle x="130" y="380" width="160" height="26" as="alternateBounds" />
          </mxGeometry>
        </mxCell>
        <mxCell id="5qYCSeuJUYiYYrYhOCEf-53" value="CapacityUp" style="swimlane;fontStyle=0;align=center;verticalAlign=top;childLayout=stackLayout;horizontal=1;startSize=29;horizontalStack=0;resizeParent=1;resizeLast=0;collapsible=1;marginBottom=0;rounded=0;shadow=0;strokeWidth=1;fillColor=#dae8fc;strokeColor=#6c8ebf;" parent="ZkXT9lSZ9WAF-JELVPfN-3" vertex="1">
          <mxGeometry y="407.5" width="80" height="40" as="geometry">
            <mxRectangle x="130" y="380" width="160" height="26" as="alternateBounds" />
          </mxGeometry>
        </mxCell>
        <mxCell id="5qYCSeuJUYiYYrYhOCEf-57" value="OneSpikeBomb" style="swimlane;fontStyle=0;align=center;verticalAlign=top;childLayout=stackLayout;horizontal=1;startSize=29;horizontalStack=0;resizeParent=1;resizeLast=0;collapsible=1;marginBottom=0;rounded=0;shadow=0;strokeWidth=1;fillColor=#dae8fc;strokeColor=#6c8ebf;" parent="ZkXT9lSZ9WAF-JELVPfN-3" vertex="1">
          <mxGeometry x="490" y="407.5" width="114" height="40" as="geometry">
            <mxRectangle x="130" y="380" width="160" height="26" as="alternateBounds" />
          </mxGeometry>
        </mxCell>
        <mxCell id="5qYCSeuJUYiYYrYhOCEf-45" value="PowerDown" style="swimlane;fontStyle=0;align=center;verticalAlign=top;childLayout=stackLayout;horizontal=1;startSize=29;horizontalStack=0;resizeParent=1;resizeLast=0;collapsible=1;marginBottom=0;rounded=0;shadow=0;strokeWidth=1;fillColor=#dae8fc;strokeColor=#6c8ebf;" parent="ZkXT9lSZ9WAF-JELVPfN-3" vertex="1">
          <mxGeometry x="300" y="407.5" width="80" height="40" as="geometry">
            <mxRectangle x="130" y="380" width="160" height="26" as="alternateBounds" />
          </mxGeometry>
        </mxCell>
        <mxCell id="sA8n1l4aLInA6auTdc-I-0" value="IDropableItem" style="swimlane;fontStyle=0;align=center;verticalAlign=top;childLayout=stackLayout;horizontal=1;startSize=29;horizontalStack=0;resizeParent=1;resizeLast=0;collapsible=1;marginBottom=0;rounded=0;shadow=0;strokeWidth=1;fillColor=#dae8fc;strokeColor=#6c8ebf;" parent="ZkXT9lSZ9WAF-JELVPfN-3" vertex="1">
          <mxGeometry x="530" y="284.5" width="160" height="49" as="geometry">
            <mxRectangle x="130" y="380" width="160" height="26" as="alternateBounds" />
          </mxGeometry>
        </mxCell>
        <mxCell id="1hP_M07iAMLnP-3DDAK9-10" style="edgeStyle=orthogonalEdgeStyle;rounded=0;orthogonalLoop=1;jettySize=auto;html=1;entryX=0.5;entryY=1;entryDx=0;entryDy=0;" parent="ZkXT9lSZ9WAF-JELVPfN-3" source="5qYCSeuJUYiYYrYhOCEf-57" target="sA8n1l4aLInA6auTdc-I-0" edge="1">
          <mxGeometry relative="1" as="geometry" />
        </mxCell>
        <mxCell id="5qYCSeuJUYiYYrYhOCEf-34" value="IBonus" style="swimlane;fontStyle=0;align=center;verticalAlign=top;childLayout=stackLayout;horizontal=1;startSize=29;horizontalStack=0;resizeParent=1;resizeLast=0;collapsible=1;marginBottom=0;rounded=0;shadow=0;strokeWidth=1;fillColor=#dae8fc;strokeColor=#6c8ebf;" parent="ZkXT9lSZ9WAF-JELVPfN-3" vertex="1">
          <mxGeometry x="60" y="288" width="160" height="44" as="geometry">
            <mxRectangle x="130" y="380" width="160" height="26" as="alternateBounds" />
          </mxGeometry>
        </mxCell>
        <mxCell id="1hP_M07iAMLnP-3DDAK9-21" style="edgeStyle=orthogonalEdgeStyle;rounded=0;orthogonalLoop=1;jettySize=auto;html=1;entryX=0.5;entryY=1;entryDx=0;entryDy=0;" parent="ZkXT9lSZ9WAF-JELVPfN-3" source="5qYCSeuJUYiYYrYhOCEf-42" target="5qYCSeuJUYiYYrYhOCEf-34" edge="1">
          <mxGeometry relative="1" as="geometry" />
        </mxCell>
        <mxCell id="1hP_M07iAMLnP-3DDAK9-22" style="edgeStyle=orthogonalEdgeStyle;rounded=0;orthogonalLoop=1;jettySize=auto;html=1;entryX=0.5;entryY=1;entryDx=0;entryDy=0;" parent="ZkXT9lSZ9WAF-JELVPfN-3" source="5qYCSeuJUYiYYrYhOCEf-47" target="5qYCSeuJUYiYYrYhOCEf-34" edge="1">
          <mxGeometry relative="1" as="geometry" />
        </mxCell>
        <mxCell id="1hP_M07iAMLnP-3DDAK9-23" style="edgeStyle=orthogonalEdgeStyle;rounded=0;orthogonalLoop=1;jettySize=auto;html=1;entryX=0.5;entryY=1;entryDx=0;entryDy=0;" parent="ZkXT9lSZ9WAF-JELVPfN-3" source="5qYCSeuJUYiYYrYhOCEf-53" target="5qYCSeuJUYiYYrYhOCEf-34" edge="1">
          <mxGeometry relative="1" as="geometry" />
        </mxCell>
        <mxCell id="1hP_M07iAMLnP-3DDAK9-2" value="SpeedDown" style="swimlane;fontStyle=0;align=center;verticalAlign=top;childLayout=stackLayout;horizontal=1;startSize=29;horizontalStack=0;resizeParent=1;resizeLast=0;collapsible=1;marginBottom=0;rounded=0;shadow=0;strokeWidth=1;fillColor=#dae8fc;strokeColor=#6c8ebf;" parent="ZkXT9lSZ9WAF-JELVPfN-3" vertex="1">
          <mxGeometry x="400" y="407.5" width="80" height="40" as="geometry">
            <mxRectangle x="130" y="380" width="160" height="26" as="alternateBounds" />
          </mxGeometry>
        </mxCell>
        <mxCell id="1hP_M07iAMLnP-3DDAK9-11" style="edgeStyle=orthogonalEdgeStyle;rounded=0;orthogonalLoop=1;jettySize=auto;html=1;entryX=0.5;entryY=1;entryDx=0;entryDy=0;" parent="ZkXT9lSZ9WAF-JELVPfN-3" source="1hP_M07iAMLnP-3DDAK9-9" target="sA8n1l4aLInA6auTdc-I-0" edge="1">
          <mxGeometry relative="1" as="geometry" />
        </mxCell>
        <mxCell id="1hP_M07iAMLnP-3DDAK9-9" value="OneSkullBomb" style="swimlane;fontStyle=0;align=center;verticalAlign=top;childLayout=stackLayout;horizontal=1;startSize=29;horizontalStack=0;resizeParent=1;resizeLast=0;collapsible=1;marginBottom=0;rounded=0;shadow=0;strokeWidth=1;fillColor=#dae8fc;strokeColor=#6c8ebf;" parent="ZkXT9lSZ9WAF-JELVPfN-3" vertex="1">
          <mxGeometry x="620" y="407.5" width="114" height="40" as="geometry">
            <mxRectangle x="130" y="380" width="160" height="26" as="alternateBounds" />
          </mxGeometry>
        </mxCell>
        <mxCell id="1hP_M07iAMLnP-3DDAK9-14" value="IDropable" style="swimlane;fontStyle=0;align=center;verticalAlign=top;childLayout=stackLayout;horizontal=1;startSize=29;horizontalStack=0;resizeParent=1;resizeLast=0;collapsible=1;marginBottom=0;rounded=0;shadow=0;strokeWidth=1;fillColor=#dae8fc;strokeColor=#6c8ebf;" parent="ZkXT9lSZ9WAF-JELVPfN-3" vertex="1">
          <mxGeometry x="285" width="210" height="184" as="geometry">
            <mxRectangle x="130" y="380" width="160" height="26" as="alternateBounds" />
          </mxGeometry>
        </mxCell>
        <mxCell id="NeBYNHLifacWEhn9Xsfm-26" value="&lt;span style=&quot;text-align: left;&quot;&gt;Health&lt;/span&gt;&lt;br&gt;Position&lt;br&gt;LifeTime&lt;br&gt;Sprite&lt;br&gt;HitBox" style="shape=process;whiteSpace=wrap;html=1;backgroundOutline=1;labelBackgroundColor=none;fillColor=#dae8fc;strokeColor=#6c8ebf;" parent="1hP_M07iAMLnP-3DDAK9-14" vertex="1">
          <mxGeometry y="29" width="210" height="101" as="geometry" />
        </mxCell>
        <mxCell id="Z0SzB8EOgksDpujRMyB5-2" value="private :&lt;br&gt;void onDeathTrigger()&lt;br&gt;void onEndOfLifeTrigger();" style="rounded=0;whiteSpace=wrap;html=1;fillColor=#dae8fc;strokeColor=#6c8ebf;" parent="1hP_M07iAMLnP-3DDAK9-14" vertex="1">
          <mxGeometry y="130" width="210" height="54" as="geometry" />
        </mxCell>
        <mxCell id="1hP_M07iAMLnP-3DDAK9-25" style="edgeStyle=orthogonalEdgeStyle;rounded=0;orthogonalLoop=1;jettySize=auto;html=1;entryX=0.5;entryY=1;entryDx=0;entryDy=0;" parent="ZkXT9lSZ9WAF-JELVPfN-3" source="sA8n1l4aLInA6auTdc-I-0" target="1hP_M07iAMLnP-3DDAK9-14" edge="1">
          <mxGeometry relative="1" as="geometry">
            <Array as="points">
              <mxPoint x="610" y="238" />
              <mxPoint x="390" y="238" />
            </Array>
          </mxGeometry>
        </mxCell>
        <mxCell id="1hP_M07iAMLnP-3DDAK9-17" style="edgeStyle=orthogonalEdgeStyle;rounded=0;orthogonalLoop=1;jettySize=auto;html=1;entryX=0.5;entryY=1;entryDx=0;entryDy=0;" parent="ZkXT9lSZ9WAF-JELVPfN-3" source="5qYCSeuJUYiYYrYhOCEf-34" target="1hP_M07iAMLnP-3DDAK9-14" edge="1">
          <mxGeometry relative="1" as="geometry">
            <Array as="points">
              <mxPoint x="150" y="238" />
              <mxPoint x="390" y="238" />
            </Array>
          </mxGeometry>
        </mxCell>
        <mxCell id="1hP_M07iAMLnP-3DDAK9-18" style="edgeStyle=orthogonalEdgeStyle;rounded=0;orthogonalLoop=1;jettySize=auto;html=1;entryX=0.5;entryY=1;entryDx=0;entryDy=0;" parent="ZkXT9lSZ9WAF-JELVPfN-3" source="1hP_M07iAMLnP-3DDAK9-16" target="1hP_M07iAMLnP-3DDAK9-14" edge="1">
          <mxGeometry relative="1" as="geometry" />
        </mxCell>
        <mxCell id="1hP_M07iAMLnP-3DDAK9-16" value="IMalus" style="swimlane;fontStyle=0;align=center;verticalAlign=top;childLayout=stackLayout;horizontal=1;startSize=29;horizontalStack=0;resizeParent=1;resizeLast=0;collapsible=1;marginBottom=0;rounded=0;shadow=0;strokeWidth=1;fillColor=#dae8fc;strokeColor=#6c8ebf;" parent="ZkXT9lSZ9WAF-JELVPfN-3" vertex="1">
          <mxGeometry x="310" y="288" width="160" height="44" as="geometry">
            <mxRectangle x="130" y="380" width="160" height="26" as="alternateBounds" />
          </mxGeometry>
        </mxCell>
        <mxCell id="1hP_M07iAMLnP-3DDAK9-20" style="edgeStyle=orthogonalEdgeStyle;rounded=0;orthogonalLoop=1;jettySize=auto;html=1;" parent="ZkXT9lSZ9WAF-JELVPfN-3" source="5qYCSeuJUYiYYrYhOCEf-45" target="1hP_M07iAMLnP-3DDAK9-16" edge="1">
          <mxGeometry relative="1" as="geometry" />
        </mxCell>
        <mxCell id="5qYCSeuJUYiYYrYhOCEf-75" style="edgeStyle=orthogonalEdgeStyle;rounded=0;orthogonalLoop=1;jettySize=auto;html=1;startArrow=none;" parent="ZkXT9lSZ9WAF-JELVPfN-3" source="1hP_M07iAMLnP-3DDAK9-2" target="1hP_M07iAMLnP-3DDAK9-16" edge="1">
          <mxGeometry relative="1" as="geometry">
            <mxPoint x="100" y="332" as="targetPoint" />
          </mxGeometry>
        </mxCell>
        <mxCell id="ZkXT9lSZ9WAF-JELVPfN-4" value="" style="group" parent="WIyWlLk6GJQsqaUBKTNV-1" vertex="1" connectable="0">
          <mxGeometry x="-1071" y="-520" width="280" height="326" as="geometry" />
        </mxCell>
        <mxCell id="QPqNGPtX9BUXnZDB_953-0" value="IBlaze" style="swimlane;fontStyle=0;align=center;verticalAlign=top;childLayout=stackLayout;horizontal=1;startSize=26;horizontalStack=0;resizeParent=1;resizeLast=0;collapsible=1;marginBottom=0;rounded=0;shadow=0;strokeWidth=1;fillColor=#dae8fc;strokeColor=#6c8ebf;" parent="ZkXT9lSZ9WAF-JELVPfN-4" vertex="1">
          <mxGeometry x="40" width="240" height="180" as="geometry">
            <mxRectangle x="-440" y="370" width="170" height="26" as="alternateBounds" />
          </mxGeometry>
        </mxCell>
        <mxCell id="-kziB6kyhPgsXL_CWFJa-1" value="&lt;span style=&quot;text-align: left;&quot;&gt;BombPower&lt;/span&gt;&lt;span style=&quot;&quot;&gt;&lt;br&gt;LifeTime&lt;br&gt;&lt;/span&gt;Position&lt;br style=&quot;&quot;&gt;&lt;span style=&quot;&quot;&gt;Animated Sprite&lt;br&gt;&lt;/span&gt;HitBox&lt;span style=&quot;&quot;&gt;&lt;br&gt;&lt;/span&gt;" style="shape=process;whiteSpace=wrap;html=1;backgroundOutline=1;labelBackgroundColor=none;fillColor=#dae8fc;strokeColor=#6c8ebf;" parent="QPqNGPtX9BUXnZDB_953-0" vertex="1">
          <mxGeometry y="26" width="240" height="84" as="geometry" />
        </mxCell>
        <mxCell id="6PONUtKkGbov2--6ka5f-0" value="private :&lt;br&gt;(endOfLife) void removeFromQuadTree()" style="rounded=0;whiteSpace=wrap;html=1;labelBackgroundColor=none;fontFamily=Helvetica;fillColor=#dae8fc;strokeColor=#6c8ebf;" parent="QPqNGPtX9BUXnZDB_953-0" vertex="1">
          <mxGeometry y="110" width="240" height="70" as="geometry" />
        </mxCell>
        <mxCell id="QPqNGPtX9BUXnZDB_953-10" style="edgeStyle=orthogonalEdgeStyle;rounded=0;orthogonalLoop=1;jettySize=auto;html=1;fontColor=#FFFFFF;entryX=0.5;entryY=1;entryDx=0;entryDy=0;" parent="ZkXT9lSZ9WAF-JELVPfN-4" source="QPqNGPtX9BUXnZDB_953-7" target="6PONUtKkGbov2--6ka5f-0" edge="1">
          <mxGeometry relative="1" as="geometry">
            <mxPoint x="160" y="174" as="targetPoint" />
          </mxGeometry>
        </mxCell>
        <mxCell id="QPqNGPtX9BUXnZDB_953-7" value="ClassicBlaze" style="swimlane;fontStyle=0;align=center;verticalAlign=top;childLayout=stackLayout;horizontal=1;startSize=26;horizontalStack=0;resizeParent=1;resizeLast=0;collapsible=1;marginBottom=0;rounded=0;shadow=0;strokeWidth=1;fillColor=#dae8fc;strokeColor=#6c8ebf;" parent="ZkXT9lSZ9WAF-JELVPfN-4" vertex="1">
          <mxGeometry y="274" width="80" height="52" as="geometry">
            <mxRectangle x="340" y="380" width="170" height="26" as="alternateBounds" />
          </mxGeometry>
        </mxCell>
        <mxCell id="-kziB6kyhPgsXL_CWFJa-6" style="edgeStyle=orthogonalEdgeStyle;rounded=0;orthogonalLoop=1;jettySize=auto;html=1;entryX=0.5;entryY=1;entryDx=0;entryDy=0;" parent="ZkXT9lSZ9WAF-JELVPfN-4" source="QPqNGPtX9BUXnZDB_953-8" target="QPqNGPtX9BUXnZDB_953-0" edge="1">
          <mxGeometry relative="1" as="geometry" />
        </mxCell>
        <mxCell id="QPqNGPtX9BUXnZDB_953-8" value="SpikeBlaze" style="swimlane;fontStyle=0;align=center;verticalAlign=top;childLayout=stackLayout;horizontal=1;startSize=26;horizontalStack=0;resizeParent=1;resizeLast=0;collapsible=1;marginBottom=0;rounded=0;shadow=0;strokeWidth=1;fillColor=#dae8fc;strokeColor=#6c8ebf;" parent="ZkXT9lSZ9WAF-JELVPfN-4" vertex="1">
          <mxGeometry x="180" y="274" width="100" height="52" as="geometry">
            <mxRectangle x="-300" y="570" width="170" height="26" as="alternateBounds" />
          </mxGeometry>
        </mxCell>
        <mxCell id="-kziB6kyhPgsXL_CWFJa-5" style="edgeStyle=orthogonalEdgeStyle;rounded=0;orthogonalLoop=1;jettySize=auto;html=1;entryX=0.5;entryY=1;entryDx=0;entryDy=0;" parent="ZkXT9lSZ9WAF-JELVPfN-4" source="QPqNGPtX9BUXnZDB_953-9" target="QPqNGPtX9BUXnZDB_953-0" edge="1">
          <mxGeometry relative="1" as="geometry" />
        </mxCell>
        <mxCell id="QPqNGPtX9BUXnZDB_953-9" value="SkullBlaze" style="swimlane;fontStyle=0;align=center;verticalAlign=top;childLayout=stackLayout;horizontal=1;startSize=26;horizontalStack=0;resizeParent=1;resizeLast=0;collapsible=1;marginBottom=0;rounded=0;shadow=0;strokeWidth=1;fillColor=#dae8fc;strokeColor=#6c8ebf;" parent="ZkXT9lSZ9WAF-JELVPfN-4" vertex="1">
          <mxGeometry x="90" y="274" width="80" height="52" as="geometry">
            <mxRectangle x="-390" y="570" width="170" height="26" as="alternateBounds" />
          </mxGeometry>
        </mxCell>
        <mxCell id="ZkXT9lSZ9WAF-JELVPfN-5" value="" style="group" parent="WIyWlLk6GJQsqaUBKTNV-1" vertex="1" connectable="0">
          <mxGeometry x="-751" y="-520" width="337" height="339.5" as="geometry" />
        </mxCell>
        <mxCell id="pifteaphSLK5if9iPqi3-0" value="IField" style="swimlane;fontStyle=0;align=center;verticalAlign=top;childLayout=stackLayout;horizontal=1;startSize=26;horizontalStack=0;resizeParent=1;resizeLast=0;collapsible=1;marginBottom=0;rounded=0;shadow=0;strokeWidth=1;fillColor=#dae8fc;strokeColor=#6c8ebf;" parent="ZkXT9lSZ9WAF-JELVPfN-5" vertex="1">
          <mxGeometry x="60" width="160" height="86" as="geometry">
            <mxRectangle x="130" y="380" width="160" height="26" as="alternateBounds" />
          </mxGeometry>
        </mxCell>
        <mxCell id="-kziB6kyhPgsXL_CWFJa-2" value="Position&lt;br&gt;Sprite&lt;br&gt;HitBox" style="shape=process;whiteSpace=wrap;html=1;backgroundOutline=1;labelBackgroundColor=none;fillColor=#dae8fc;strokeColor=#6c8ebf;" parent="pifteaphSLK5if9iPqi3-0" vertex="1">
          <mxGeometry y="26" width="160" height="60" as="geometry" />
        </mxCell>
        <mxCell id="1hP_M07iAMLnP-3DDAK9-47" style="edgeStyle=orthogonalEdgeStyle;rounded=0;orthogonalLoop=1;jettySize=auto;html=1;fontColor=#FFFFFF;" parent="ZkXT9lSZ9WAF-JELVPfN-5" source="pifteaphSLK5if9iPqi3-3" target="-kziB6kyhPgsXL_CWFJa-2" edge="1">
          <mxGeometry relative="1" as="geometry">
            <mxPoint x="138.5" y="86" as="targetPoint" />
          </mxGeometry>
        </mxCell>
        <mxCell id="pifteaphSLK5if9iPqi3-3" value="BreakableWall" style="swimlane;fontStyle=0;align=center;verticalAlign=top;childLayout=stackLayout;horizontal=1;startSize=26;horizontalStack=0;resizeParent=1;resizeLast=0;collapsible=1;marginBottom=0;rounded=0;shadow=0;strokeWidth=1;fillColor=#dae8fc;strokeColor=#6c8ebf;" parent="ZkXT9lSZ9WAF-JELVPfN-5" vertex="1">
          <mxGeometry y="189.5" width="210" height="150" as="geometry">
            <mxRectangle x="130" y="380" width="160" height="26" as="alternateBounds" />
          </mxGeometry>
        </mxCell>
        <mxCell id="-kziB6kyhPgsXL_CWFJa-3" value="Healt&lt;br&gt;AnimatedSprite" style="shape=process;whiteSpace=wrap;html=1;backgroundOutline=1;labelBackgroundColor=none;fillColor=#dae8fc;strokeColor=#6c8ebf;" parent="pifteaphSLK5if9iPqi3-3" vertex="1">
          <mxGeometry y="26" width="210" height="60" as="geometry" />
        </mxCell>
        <mxCell id="-kziB6kyhPgsXL_CWFJa-4" value="private :&lt;br&gt;void deathTriggered();" style="rounded=0;whiteSpace=wrap;html=1;fillColor=#dae8fc;strokeColor=#6c8ebf;" parent="pifteaphSLK5if9iPqi3-3" vertex="1">
          <mxGeometry y="86" width="210" height="64" as="geometry" />
        </mxCell>
        <mxCell id="1hP_M07iAMLnP-3DDAK9-49" style="edgeStyle=orthogonalEdgeStyle;rounded=0;orthogonalLoop=1;jettySize=auto;html=1;fontColor=#FFFFFF;" parent="ZkXT9lSZ9WAF-JELVPfN-5" source="pifteaphSLK5if9iPqi3-4" target="-kziB6kyhPgsXL_CWFJa-2" edge="1">
          <mxGeometry relative="1" as="geometry" />
        </mxCell>
        <mxCell id="pifteaphSLK5if9iPqi3-4" value="UnbreakableWall" style="swimlane;fontStyle=0;align=center;verticalAlign=top;childLayout=stackLayout;horizontal=1;startSize=26;horizontalStack=0;resizeParent=1;resizeLast=0;collapsible=1;marginBottom=0;rounded=0;shadow=0;strokeWidth=1;fillColor=#dae8fc;strokeColor=#6c8ebf;" parent="ZkXT9lSZ9WAF-JELVPfN-5" vertex="1">
          <mxGeometry x="220" y="190" width="117" height="52" as="geometry">
            <mxRectangle x="130" y="380" width="160" height="26" as="alternateBounds" />
          </mxGeometry>
        </mxCell>
        <mxCell id="m8LF-ZGYIUAYpcabDD86-0" value="SmallRedSquare" style="swimlane;fontStyle=0;align=center;verticalAlign=top;childLayout=stackLayout;horizontal=1;startSize=26;horizontalStack=0;resizeParent=1;resizeLast=0;collapsible=1;marginBottom=0;rounded=0;shadow=0;strokeWidth=1;fillColor=#ffe6cc;strokeColor=#d79b00;" parent="WIyWlLk6GJQsqaUBKTNV-1" vertex="1">
          <mxGeometry x="-1260" y="-840" width="210" height="110" as="geometry">
            <mxRectangle x="130" y="380" width="160" height="26" as="alternateBounds" />
          </mxGeometry>
        </mxCell>
        <mxCell id="m8LF-ZGYIUAYpcabDD86-2" value="&lt;div style=&quot;text-align: left;&quot;&gt;&lt;span style=&quot;background-color: initial;&quot;&gt;Position&lt;/span&gt;&lt;/div&gt;&lt;div style=&quot;text-align: left;&quot;&gt;&lt;span style=&quot;background-color: initial;&quot;&gt;Orientation&lt;/span&gt;&lt;/div&gt;&lt;div style=&quot;text-align: left;&quot;&gt;Sprite&lt;/div&gt;&lt;div style=&quot;text-align: left;&quot;&gt;&lt;span style=&quot;text-align: center;&quot;&gt;MoveSpeed&lt;/span&gt;&lt;br&gt;&lt;/div&gt;&lt;div style=&quot;text-align: left;&quot;&gt;&lt;span style=&quot;text-align: center;&quot;&gt;InputMapping&lt;/span&gt;&lt;span style=&quot;text-align: center;&quot;&gt;&lt;br&gt;&lt;/span&gt;&lt;/div&gt;" style="shape=process;whiteSpace=wrap;html=1;backgroundOutline=1;labelBackgroundColor=none;fillColor=#ffe6cc;strokeColor=#d79b00;" parent="m8LF-ZGYIUAYpcabDD86-0" vertex="1">
          <mxGeometry y="26" width="210" height="84" as="geometry" />
        </mxCell>
        <mxCell id="tDbg_zawD5JyW3v5lx5w-6" value="Background" style="swimlane;fontStyle=0;align=center;verticalAlign=top;childLayout=stackLayout;horizontal=1;startSize=26;horizontalStack=0;resizeParent=1;resizeLast=0;collapsible=1;marginBottom=0;rounded=0;shadow=0;strokeWidth=1;fillColor=#dae8fc;strokeColor=#6c8ebf;" vertex="1" parent="WIyWlLk6GJQsqaUBKTNV-1">
          <mxGeometry x="-751" y="-130" width="160" height="86" as="geometry">
            <mxRectangle x="130" y="380" width="160" height="26" as="alternateBounds" />
          </mxGeometry>
        </mxCell>
        <mxCell id="tDbg_zawD5JyW3v5lx5w-7" value="&lt;span style=&quot;&quot;&gt;Sprite&lt;/span&gt;" style="shape=process;whiteSpace=wrap;html=1;backgroundOutline=1;labelBackgroundColor=none;fillColor=#dae8fc;strokeColor=#6c8ebf;" vertex="1" parent="tDbg_zawD5JyW3v5lx5w-6">
          <mxGeometry y="26" width="160" height="60" as="geometry" />
        </mxCell>
      </root>
    </mxGraphModel>
  </diagram>
  <diagram id="P7ZYKNzJO6TBV-RXqcA2" name="Components">
    <mxGraphModel dx="1787" dy="587" grid="1" gridSize="10" guides="1" tooltips="1" connect="1" arrows="1" fold="1" page="1" pageScale="1" pageWidth="827" pageHeight="1169" math="0" shadow="0">
      <root>
        <mxCell id="0" />
        <mxCell id="1" parent="0" />
        <mxCell id="KCFxO8vaiqeZqYiPWBGx-2" value="Health" style="swimlane;fontStyle=0;align=center;verticalAlign=top;childLayout=stackLayout;horizontal=1;startSize=26;horizontalStack=0;resizeParent=1;resizeLast=0;collapsible=1;marginBottom=0;rounded=0;shadow=0;strokeWidth=1;fillColor=#dae8fc;strokeColor=#6c8ebf;" parent="1" vertex="1">
          <mxGeometry x="-429" y="480" width="190" height="160" as="geometry">
            <mxRectangle x="130" y="380" width="160" height="26" as="alternateBounds" />
          </mxGeometry>
        </mxCell>
        <mxCell id="mQNub_hCov6WkWbYThP5-1" value="&lt;span style=&quot;color: rgb(0, 0, 0); font-family: Helvetica; font-size: 12px; font-style: normal; font-variant-ligatures: normal; font-variant-caps: normal; font-weight: 400; letter-spacing: normal; orphans: 2; text-align: left; text-indent: 0px; text-transform: none; widows: 2; word-spacing: 0px; -webkit-text-stroke-width: 0px; text-decoration-thickness: initial; text-decoration-style: initial; text-decoration-color: initial; float: none; display: inline !important;&quot;&gt;int _HP&lt;br&gt;&lt;span style=&quot;&quot;&gt;void* _onDeathTrigger&lt;/span&gt;&lt;br&gt;&lt;/span&gt;" style="rounded=1;whiteSpace=wrap;html=1;fillColor=#dae8fc;strokeColor=#6c8ebf;" parent="KCFxO8vaiqeZqYiPWBGx-2" vertex="1">
          <mxGeometry y="26" width="190" height="60" as="geometry" />
        </mxCell>
        <mxCell id="KCFxO8vaiqeZqYiPWBGx-4" value="Healt(int initialHealtPoints)&#xa;void update(int damage)&#xa;bool isDead()&#xa;void triggerDeath()&#xa;" style="text;align=left;verticalAlign=top;spacingLeft=4;spacingRight=4;overflow=hidden;rotatable=0;points=[[0,0.5],[1,0.5]];portConstraint=eastwest;rounded=0;shadow=0;html=0;fillColor=#dae8fc;strokeColor=#6c8ebf;" parent="KCFxO8vaiqeZqYiPWBGx-2" vertex="1">
          <mxGeometry y="86" width="190" height="74" as="geometry" />
        </mxCell>
        <mxCell id="KCFxO8vaiqeZqYiPWBGx-6" value="Lifetime" style="swimlane;fontStyle=0;align=center;verticalAlign=top;childLayout=stackLayout;horizontal=1;startSize=26;horizontalStack=0;resizeParent=1;resizeLast=0;collapsible=1;marginBottom=0;rounded=0;shadow=0;strokeWidth=1;fillColor=#dae8fc;strokeColor=#6c8ebf;" parent="1" vertex="1">
          <mxGeometry x="-239" y="480" width="250" height="160" as="geometry">
            <mxRectangle x="340" y="380" width="170" height="26" as="alternateBounds" />
          </mxGeometry>
        </mxCell>
        <mxCell id="mQNub_hCov6WkWbYThP5-2" value="&lt;span style=&quot;&quot;&gt;DateTime _start&lt;/span&gt;&lt;br style=&quot;&quot;&gt;&lt;span style=&quot;&quot;&gt;TimeSpan _lifeSpan&lt;br&gt;void* _onEndOfLifeTrigger&lt;br&gt;&lt;/span&gt;" style="rounded=1;whiteSpace=wrap;html=1;labelBackgroundColor=none;fillColor=#dae8fc;strokeColor=#6c8ebf;" parent="KCFxO8vaiqeZqYiPWBGx-6" vertex="1">
          <mxGeometry y="26" width="250" height="60" as="geometry" />
        </mxCell>
        <mxCell id="KCFxO8vaiqeZqYiPWBGx-7" value="LifeTime(DateTime start, TimeSpan duration)&#xa;void update(TimeSpan lastUpdate)&#xa;boolean isLifeOver()&#xa;void triggerEndOfLife()&#xa;" style="text;align=left;verticalAlign=top;spacingLeft=4;spacingRight=4;overflow=hidden;rotatable=0;points=[[0,0.5],[1,0.5]];portConstraint=eastwest;fillColor=#dae8fc;strokeColor=#6c8ebf;" parent="KCFxO8vaiqeZqYiPWBGx-6" vertex="1">
          <mxGeometry y="86" width="250" height="74" as="geometry" />
        </mxCell>
        <mxCell id="VcB2ZQ1oiTqsEMnRflsc-6" value="Position" style="swimlane;fontStyle=0;align=center;verticalAlign=top;childLayout=stackLayout;horizontal=1;startSize=26;horizontalStack=0;resizeParent=1;resizeLast=0;collapsible=1;marginBottom=0;rounded=0;shadow=0;strokeWidth=1;fillColor=#ffe6cc;strokeColor=#d79b00;" parent="1" vertex="1">
          <mxGeometry x="-810" y="750" width="180" height="120" as="geometry">
            <mxRectangle x="340" y="380" width="170" height="26" as="alternateBounds" />
          </mxGeometry>
        </mxCell>
        <mxCell id="aFOkexNdVSmBTPzAvPE0-7" value="&lt;span style=&quot;text-align: left;&quot;&gt;vector2d _position&lt;/span&gt;" style="rounded=1;whiteSpace=wrap;html=1;labelBackgroundColor=none;fillColor=#ffe6cc;strokeColor=#d79b00;" parent="VcB2ZQ1oiTqsEMnRflsc-6" vertex="1">
          <mxGeometry y="26" width="180" height="34" as="geometry" />
        </mxCell>
        <mxCell id="VcB2ZQ1oiTqsEMnRflsc-7" value="Position(double x, double y)&#xa;vector2d getPosition()&#xa;void update(vector2d target)" style="text;align=left;verticalAlign=top;spacingLeft=4;spacingRight=4;overflow=hidden;rotatable=0;points=[[0,0.5],[1,0.5]];portConstraint=eastwest;fillColor=#ffe6cc;strokeColor=#d79b00;" parent="VcB2ZQ1oiTqsEMnRflsc-6" vertex="1">
          <mxGeometry y="60" width="180" height="60" as="geometry" />
        </mxCell>
        <mxCell id="VcB2ZQ1oiTqsEMnRflsc-22" value="Orientation" style="swimlane;fontStyle=0;align=center;verticalAlign=top;childLayout=stackLayout;horizontal=1;startSize=26;horizontalStack=0;resizeParent=1;resizeLast=0;collapsible=1;marginBottom=0;rounded=0;shadow=0;strokeWidth=1;fillColor=#dae8fc;strokeColor=#6c8ebf;" parent="1" vertex="1">
          <mxGeometry x="-630" y="750" width="190" height="60" as="geometry">
            <mxRectangle x="130" y="380" width="160" height="26" as="alternateBounds" />
          </mxGeometry>
        </mxCell>
        <mxCell id="aFOkexNdVSmBTPzAvPE0-8" value="&lt;span style=&quot;text-align: left;&quot;&gt;enum {N, W, S, E}&lt;/span&gt;" style="rounded=1;whiteSpace=wrap;html=1;labelBackgroundColor=none;fillColor=#dae8fc;strokeColor=#6c8ebf;" parent="VcB2ZQ1oiTqsEMnRflsc-22" vertex="1">
          <mxGeometry y="26" width="190" height="34" as="geometry" />
        </mxCell>
        <mxCell id="VcB2ZQ1oiTqsEMnRflsc-38" value="BombPower" style="swimlane;fontStyle=0;align=center;verticalAlign=top;childLayout=stackLayout;horizontal=1;startSize=26;horizontalStack=0;resizeParent=1;resizeLast=0;collapsible=1;marginBottom=0;rounded=0;shadow=0;strokeWidth=1;fillColor=#dae8fc;strokeColor=#6c8ebf;" parent="1" vertex="1">
          <mxGeometry x="-610" y="480" width="180" height="146" as="geometry">
            <mxRectangle x="340" y="380" width="170" height="26" as="alternateBounds" />
          </mxGeometry>
        </mxCell>
        <mxCell id="2YwIlTpjY0fRbYxKe_WA-7" value="int _damage&lt;br&gt;int _range" style="rounded=1;whiteSpace=wrap;html=1;labelBackgroundColor=none;fillColor=#dae8fc;strokeColor=#6c8ebf;" parent="VcB2ZQ1oiTqsEMnRflsc-38" vertex="1">
          <mxGeometry y="26" width="180" height="60" as="geometry" />
        </mxCell>
        <mxCell id="Y_kqUDQxgOQmJxJyAydf-1" value="void applyPowerUp()&lt;br&gt;void applyPowerDown()" style="rounded=0;whiteSpace=wrap;html=1;labelBackgroundColor=none;fillColor=#dae8fc;strokeColor=#6c8ebf;align=left;" parent="VcB2ZQ1oiTqsEMnRflsc-38" vertex="1">
          <mxGeometry y="86" width="180" height="60" as="geometry" />
        </mxCell>
        <mxCell id="NDHu2dPXTT_QJCu6Oco2-1" value="MoveSpeed" style="swimlane;fontStyle=0;align=center;verticalAlign=top;childLayout=stackLayout;horizontal=1;startSize=26;horizontalStack=0;resizeParent=1;resizeLast=0;collapsible=1;marginBottom=0;rounded=0;shadow=0;strokeWidth=1;fillColor=#ffe6cc;strokeColor=#d79b00;" parent="1" vertex="1">
          <mxGeometry x="-440" y="750" width="180" height="161" as="geometry">
            <mxRectangle x="340" y="380" width="170" height="26" as="alternateBounds" />
          </mxGeometry>
        </mxCell>
        <mxCell id="aFOkexNdVSmBTPzAvPE0-9" value="float _moveSpeed" style="rounded=1;whiteSpace=wrap;html=1;labelBackgroundColor=none;fillColor=#ffe6cc;strokeColor=#d79b00;" parent="NDHu2dPXTT_QJCu6Oco2-1" vertex="1">
          <mxGeometry y="26" width="180" height="44" as="geometry" />
        </mxCell>
        <mxCell id="aFOkexNdVSmBTPzAvPE0-10" value="MoveSpeed(float speed)&lt;br&gt;float getSpeed()&lt;br&gt;void applySpeedUp()&lt;br&gt;void applySpeedDown()" style="rounded=0;whiteSpace=wrap;html=1;labelBackgroundColor=none;fillColor=#ffe6cc;strokeColor=#d79b00;align=left;" parent="NDHu2dPXTT_QJCu6Oco2-1" vertex="1">
          <mxGeometry y="70" width="180" height="90" as="geometry" />
        </mxCell>
        <mxCell id="NDHu2dPXTT_QJCu6Oco2-5" value="Sprite" style="swimlane;fontStyle=0;align=center;verticalAlign=top;childLayout=stackLayout;horizontal=1;startSize=26;horizontalStack=0;resizeParent=1;resizeLast=0;collapsible=1;marginBottom=0;rounded=0;shadow=0;strokeWidth=1;fillColor=#ffe6cc;strokeColor=#d79b00;" parent="1" vertex="1">
          <mxGeometry x="-260" y="750" width="210" height="170" as="geometry">
            <mxRectangle x="340" y="380" width="170" height="26" as="alternateBounds" />
          </mxGeometry>
        </mxCell>
        <mxCell id="i3p3Z-7oL9pl7fm8ZPMz-5" value="&lt;span style=&quot;&quot;&gt;sf::Sprite&lt;br&gt;&lt;/span&gt;" style="rounded=1;whiteSpace=wrap;html=1;labelBackgroundColor=none;fillColor=#ffe6cc;strokeColor=#d79b00;" parent="NDHu2dPXTT_QJCu6Oco2-5" vertex="1">
          <mxGeometry y="26" width="210" height="60" as="geometry" />
        </mxCell>
        <mxCell id="i3p3Z-7oL9pl7fm8ZPMz-3" value="void draw(Position currentPosition)" style="text;align=left;verticalAlign=top;spacingLeft=4;spacingRight=4;overflow=hidden;rotatable=0;points=[[0,0.5],[1,0.5]];portConstraint=eastwest;rounded=0;shadow=0;html=0;fillColor=#ffe6cc;strokeColor=#d79b00;" parent="NDHu2dPXTT_QJCu6Oco2-5" vertex="1">
          <mxGeometry y="86" width="210" height="84" as="geometry" />
        </mxCell>
        <mxCell id="NDHu2dPXTT_QJCu6Oco2-10" value="" style="group" parent="1" vertex="1" connectable="0">
          <mxGeometry x="-810" y="170" width="660" height="140" as="geometry" />
        </mxCell>
        <mxCell id="LS1AbEDLP3jtKAck4TMM-1" value="Color Legend&lt;br&gt;&lt;br&gt;&lt;br&gt;&lt;br&gt;&lt;br&gt;&lt;br&gt;&lt;br&gt;&lt;br&gt;" style="rounded=0;whiteSpace=wrap;html=1;align=left;" parent="NDHu2dPXTT_QJCu6Oco2-10" vertex="1">
          <mxGeometry width="660" height="140" as="geometry" />
        </mxCell>
        <mxCell id="LS1AbEDLP3jtKAck4TMM-2" value="under development" style="rounded=0;whiteSpace=wrap;html=1;fillColor=#ffe6cc;strokeColor=#d79b00;" parent="NDHu2dPXTT_QJCu6Oco2-10" vertex="1">
          <mxGeometry x="345" y="60" width="120" height="60" as="geometry" />
        </mxCell>
        <mxCell id="LS1AbEDLP3jtKAck4TMM-3" value="designed" style="rounded=0;whiteSpace=wrap;html=1;fillColor=#dae8fc;strokeColor=#6c8ebf;" parent="NDHu2dPXTT_QJCu6Oco2-10" vertex="1">
          <mxGeometry x="180" y="60" width="120" height="60" as="geometry" />
        </mxCell>
        <mxCell id="LS1AbEDLP3jtKAck4TMM-4" value="developped" style="rounded=0;whiteSpace=wrap;html=1;fillColor=#e1d5e7;strokeColor=#9673a6;" parent="NDHu2dPXTT_QJCu6Oco2-10" vertex="1">
          <mxGeometry x="530" y="60" width="120" height="60" as="geometry" />
        </mxCell>
        <mxCell id="NDHu2dPXTT_QJCu6Oco2-3" value="lack of design" style="rounded=0;whiteSpace=wrap;html=1;fillColor=#d5e8d4;strokeColor=#82b366;" parent="NDHu2dPXTT_QJCu6Oco2-10" vertex="1">
          <mxGeometry x="20" y="60" width="120" height="60" as="geometry" />
        </mxCell>
        <mxCell id="A9Fd0G-EtiWvHAazUWch-1" value="HitBox" style="swimlane;fontStyle=0;align=center;verticalAlign=top;childLayout=stackLayout;horizontal=1;startSize=26;horizontalStack=0;resizeParent=1;resizeLast=0;collapsible=1;marginBottom=0;rounded=0;shadow=0;strokeWidth=1;fillColor=#dae8fc;strokeColor=#6c8ebf;" parent="1" vertex="1">
          <mxGeometry x="170" y="750" width="180" height="170" as="geometry">
            <mxRectangle x="130" y="380" width="160" height="26" as="alternateBounds" />
          </mxGeometry>
        </mxCell>
        <mxCell id="i3p3Z-7oL9pl7fm8ZPMz-1" value="&lt;span style=&quot;color: rgb(0, 0, 0); font-family: Helvetica; font-size: 12px; font-style: normal; font-variant-ligatures: normal; font-variant-caps: normal; font-weight: 400; letter-spacing: normal; orphans: 2; text-align: left; text-indent: 0px; text-transform: none; widows: 2; word-spacing: 0px; -webkit-text-stroke-width: 0px; text-decoration-thickness: initial; text-decoration-style: initial; text-decoration-color: initial; float: none; display: inline !important;&quot;&gt;Collection&amp;lt;Square&amp;gt; _shape&lt;br&gt;&lt;/span&gt;" style="rounded=1;whiteSpace=wrap;html=1;fillColor=#dae8fc;strokeColor=#6c8ebf;" parent="A9Fd0G-EtiWvHAazUWch-1" vertex="1">
          <mxGeometry y="26" width="180" height="60" as="geometry" />
        </mxCell>
        <mxCell id="i3p3Z-7oL9pl7fm8ZPMz-2" value="bool hasCollision(&#xa;    Position currentPosition,&#xa;    HitBox target, &#xa;    Position targetPosition)" style="text;align=left;verticalAlign=top;spacingLeft=4;spacingRight=4;overflow=hidden;rotatable=0;points=[[0,0.5],[1,0.5]];portConstraint=eastwest;rounded=0;shadow=0;html=0;fillColor=#dae8fc;strokeColor=#6c8ebf;" parent="A9Fd0G-EtiWvHAazUWch-1" vertex="1">
          <mxGeometry y="86" width="180" height="84" as="geometry" />
        </mxCell>
        <mxCell id="EF9shvTbddhJojfyvEBf-2" value="BackPack" style="swimlane;fontStyle=0;align=center;verticalAlign=top;childLayout=stackLayout;horizontal=1;startSize=26;horizontalStack=0;resizeParent=1;resizeLast=0;collapsible=1;marginBottom=0;rounded=0;shadow=0;strokeWidth=1;fillColor=#dae8fc;strokeColor=#6c8ebf;" parent="1" vertex="1">
          <mxGeometry x="-810" y="480" width="200" height="230" as="geometry">
            <mxRectangle x="130" y="380" width="160" height="26" as="alternateBounds" />
          </mxGeometry>
        </mxCell>
        <mxCell id="7ERl1DWxq6LSfS7aBiQF-1" value="ArrayList&amp;lt;&lt;span style=&quot;text-align: left;&quot;&gt;BombSlot&amp;nbsp;&lt;/span&gt;&amp;gt; bombs&lt;br&gt;int currentSelection" style="rounded=1;whiteSpace=wrap;html=1;labelBackgroundColor=none;fillColor=#dae8fc;strokeColor=#6c8ebf;" parent="EF9shvTbddhJojfyvEBf-2" vertex="1">
          <mxGeometry y="26" width="200" height="60" as="geometry" />
        </mxCell>
        <mxCell id="7ERl1DWxq6LSfS7aBiQF-2" value="void dropBomb(Position position)&#xa;void moveSelection(int step)&#xa;&#xa;" style="text;align=left;verticalAlign=top;spacingLeft=4;spacingRight=4;overflow=hidden;rotatable=0;points=[[0,0.5],[1,0.5]];portConstraint=eastwest;rounded=0;shadow=0;html=0;fillColor=#dae8fc;strokeColor=#6c8ebf;" parent="EF9shvTbddhJojfyvEBf-2" vertex="1">
          <mxGeometry y="86" width="200" height="54" as="geometry" />
        </mxCell>
        <mxCell id="fgYijla_bkTOnnFsovWl-7" value="&lt;span style=&quot;&quot;&gt;struct BombSlot {&lt;/span&gt;&lt;br style=&quot;padding: 0px; margin: 0px;&quot;&gt;&lt;blockquote style=&quot;margin: 0 0 0 40px; border: none; padding: 0px;&quot;&gt;&lt;span style=&quot;&quot;&gt;IBomb bomb;&lt;br&gt;&lt;/span&gt;&lt;span style=&quot;&quot;&gt;int count&lt;/span&gt;&lt;/blockquote&gt;&lt;span style=&quot;&quot;&gt;}&lt;/span&gt;" style="shape=process;whiteSpace=wrap;html=1;backgroundOutline=1;fillColor=#dae8fc;strokeColor=#6c8ebf;align=left;" parent="EF9shvTbddhJojfyvEBf-2" vertex="1">
          <mxGeometry y="140" width="200" height="90" as="geometry" />
        </mxCell>
        <mxCell id="avHS5_xtqV4RTg9B3GDC-2" value="" style="group" parent="1" vertex="1" connectable="0">
          <mxGeometry x="-150" y="20" width="280" height="290" as="geometry" />
        </mxCell>
        <mxCell id="1Y70CUb7ad9srOYX0PEe-1" value="Box Legend&lt;br&gt;&lt;br&gt;&lt;br&gt;&lt;br&gt;&lt;br&gt;&lt;br&gt;&lt;br&gt;&lt;br&gt;&lt;br&gt;&lt;br&gt;&lt;br&gt;&lt;br&gt;&lt;br&gt;&lt;br&gt;&lt;br&gt;&lt;br&gt;&lt;br&gt;&lt;br&gt;" style="rounded=0;whiteSpace=wrap;html=1;align=left;" parent="avHS5_xtqV4RTg9B3GDC-2" vertex="1">
          <mxGeometry width="280" height="290" as="geometry" />
        </mxCell>
        <mxCell id="fgYijla_bkTOnnFsovWl-1" value="Composant Name" style="swimlane;fontStyle=0;align=center;verticalAlign=top;childLayout=stackLayout;horizontal=1;startSize=29;horizontalStack=0;resizeParent=1;resizeLast=0;collapsible=1;marginBottom=0;rounded=0;shadow=0;strokeWidth=1;fillColor=#f5f5f5;strokeColor=#666666;fontColor=#333333;" parent="avHS5_xtqV4RTg9B3GDC-2" vertex="1">
          <mxGeometry x="10" y="50" width="260" height="209" as="geometry">
            <mxRectangle x="130" y="380" width="160" height="26" as="alternateBounds" />
          </mxGeometry>
        </mxCell>
        <mxCell id="fgYijla_bkTOnnFsovWl-3" value="Liste des attributs (private)" style="rounded=1;whiteSpace=wrap;html=1;fillColor=#f5f5f5;strokeColor=#666666;fontColor=#333333;" parent="fgYijla_bkTOnnFsovWl-1" vertex="1">
          <mxGeometry y="29" width="260" height="60" as="geometry" />
        </mxCell>
        <mxCell id="fgYijla_bkTOnnFsovWl-4" value="Informations public" style="rounded=0;whiteSpace=wrap;html=1;fillColor=#f5f5f5;strokeColor=#666666;fontColor=#333333;" parent="fgYijla_bkTOnnFsovWl-1" vertex="1">
          <mxGeometry y="89" width="260" height="59" as="geometry" />
        </mxCell>
        <mxCell id="fgYijla_bkTOnnFsovWl-6" value="Informations private" style="shape=process;whiteSpace=wrap;html=1;backgroundOutline=1;fillColor=#f5f5f5;fontColor=#333333;strokeColor=#666666;" parent="fgYijla_bkTOnnFsovWl-1" vertex="1">
          <mxGeometry y="148" width="260" height="60" as="geometry" />
        </mxCell>
        <mxCell id="EK4O7KBr_1Ea7-5BL_ZG-1" value="InputMapping" style="swimlane;fontStyle=0;align=center;verticalAlign=top;childLayout=stackLayout;horizontal=1;startSize=26;horizontalStack=0;resizeParent=1;resizeLast=0;collapsible=1;marginBottom=0;rounded=0;shadow=0;strokeWidth=1;fillColor=#ffe6cc;strokeColor=#d79b00;" parent="1" vertex="1">
          <mxGeometry x="10" y="480" width="170" height="130" as="geometry">
            <mxRectangle x="130" y="380" width="160" height="26" as="alternateBounds" />
          </mxGeometry>
        </mxCell>
        <mxCell id="EK4O7KBr_1Ea7-5BL_ZG-2" value="FIFO data - input" style="rounded=1;whiteSpace=wrap;html=1;labelBackgroundColor=none;fillColor=#ffe6cc;strokeColor=#d79b00;" parent="EK4O7KBr_1Ea7-5BL_ZG-1" vertex="1">
          <mxGeometry y="26" width="170" height="44" as="geometry" />
        </mxCell>
        <mxCell id="EK4O7KBr_1Ea7-5BL_ZG-3" value="au constructeur - ajouter this au service&amp;nbsp;&lt;span style=&quot;font-style: italic;&quot;&gt;KeyboardInput&lt;/span&gt;&lt;br&gt;bool hasInput()&lt;br&gt;void consumeNextInput()" style="rounded=0;whiteSpace=wrap;html=1;fillColor=#ffe6cc;strokeColor=#d79b00;" parent="EK4O7KBr_1Ea7-5BL_ZG-1" vertex="1">
          <mxGeometry y="70" width="170" height="60" as="geometry" />
        </mxCell>
        <mxCell id="i3p3Z-7oL9pl7fm8ZPMz-10" value="AnimatedSprite" style="swimlane;fontStyle=0;align=center;verticalAlign=top;childLayout=stackLayout;horizontal=1;startSize=26;horizontalStack=0;resizeParent=1;resizeLast=0;collapsible=1;marginBottom=0;rounded=0;shadow=0;strokeWidth=1;fillColor=#dae8fc;strokeColor=#6c8ebf;" parent="1" vertex="1">
          <mxGeometry x="-50" y="750" width="220" height="170" as="geometry">
            <mxRectangle x="340" y="380" width="170" height="26" as="alternateBounds" />
          </mxGeometry>
        </mxCell>
        <mxCell id="i3p3Z-7oL9pl7fm8ZPMz-11" value="sf::Sprite&lt;br&gt;&lt;span style=&quot;&quot;&gt;spriteCount&lt;br&gt;current&lt;br&gt;elapsedTime&lt;br&gt;&lt;/span&gt;" style="rounded=1;whiteSpace=wrap;html=1;labelBackgroundColor=none;fillColor=#dae8fc;strokeColor=#6c8ebf;" parent="i3p3Z-7oL9pl7fm8ZPMz-10" vertex="1">
          <mxGeometry y="26" width="220" height="60" as="geometry" />
        </mxCell>
        <mxCell id="i3p3Z-7oL9pl7fm8ZPMz-12" value="void updateElapsedTime(TimeSpan)&#xa;void draw(Position currentPosition)&#xa;" style="text;align=left;verticalAlign=top;spacingLeft=4;spacingRight=4;overflow=hidden;rotatable=0;points=[[0,0.5],[1,0.5]];portConstraint=eastwest;rounded=0;shadow=0;html=0;fillColor=#dae8fc;strokeColor=#6c8ebf;" parent="i3p3Z-7oL9pl7fm8ZPMz-10" vertex="1">
          <mxGeometry y="86" width="220" height="84" as="geometry" />
        </mxCell>
        <mxCell id="tbXV0rcDuFo2M6XvJgZD-1" value="&lt;h1&gt;Components&lt;/h1&gt;&lt;p&gt;Un objet &lt;b&gt;Components&lt;/b&gt; est un conteneur de données&lt;/p&gt;&lt;p&gt;Les données dans un objet &lt;b&gt;Component &lt;/b&gt;ne peuvent pas être un autre objet &lt;b&gt;Component&lt;/b&gt;&lt;/p&gt;&lt;p&gt;Toutes les classes représentant un objet &lt;b&gt;Component &lt;/b&gt;doivent héritées de l&#39;interface &lt;b&gt;IComponent&lt;/b&gt;&lt;/p&gt;&lt;p&gt;Un composant représente des données &lt;i&gt;private&lt;/i&gt; avec des fonctions pour les modifier appelées par des objets &lt;b&gt;Systems&lt;/b&gt;&lt;/p&gt;" style="text;html=1;strokeColor=#0e8088;fillColor=#b0e3e6;spacing=5;spacingTop=-20;whiteSpace=wrap;overflow=hidden;rounded=0;" parent="1" vertex="1">
          <mxGeometry x="-810" y="20" width="660" height="150" as="geometry" />
        </mxCell>
        <mxCell id="rt0No6bqoxDc6XaSNI8B-1" value="IComponent" style="swimlane;fontStyle=2;align=center;verticalAlign=top;childLayout=stackLayout;horizontal=1;startSize=26;horizontalStack=0;resizeParent=1;resizeLast=0;collapsible=1;marginBottom=0;rounded=0;shadow=0;strokeWidth=1;fillColor=#ffe6cc;strokeColor=#d79b00;" parent="1" vertex="1">
          <mxGeometry x="-800" y="340" width="120" height="40" as="geometry">
            <mxRectangle x="220" y="120" width="160" height="26" as="alternateBounds" />
          </mxGeometry>
        </mxCell>
        <mxCell id="rt0No6bqoxDc6XaSNI8B-4" value="&lt;b&gt;class parent communes à tous&lt;/b&gt;" style="rounded=0;whiteSpace=wrap;html=1;fillColor=#ffe6cc;strokeColor=#d79b00;" parent="1" vertex="1">
          <mxGeometry x="-800" y="320" width="207" height="20" as="geometry" />
        </mxCell>
      </root>
    </mxGraphModel>
  </diagram>
  <diagram id="kywROWC3MnGTriDKrUZh" name="Systems">
    <mxGraphModel dx="960" dy="587" grid="1" gridSize="10" guides="1" tooltips="1" connect="1" arrows="1" fold="1" page="1" pageScale="1" pageWidth="827" pageHeight="1169" math="0" shadow="0">
      <root>
        <mxCell id="0" />
        <mxCell id="1" parent="0" />
        <mxCell id="8Iiqby4rLfHwTd-ICCUl-5" value="LifeSpanSystem" style="swimlane;fontStyle=0;align=center;verticalAlign=top;childLayout=stackLayout;horizontal=1;startSize=26;horizontalStack=0;resizeParent=1;resizeLast=0;collapsible=1;marginBottom=0;rounded=0;shadow=0;strokeWidth=1;fillColor=#dae8fc;strokeColor=#6c8ebf;" parent="1" vertex="1">
          <mxGeometry x="660" y="810" width="298" height="176" as="geometry">
            <mxRectangle x="130" y="380" width="160" height="26" as="alternateBounds" />
          </mxGeometry>
        </mxCell>
        <mxCell id="ZBUVsZiDvjBQHubhWyUc-8" value="Lifetime" style="shape=process;whiteSpace=wrap;html=1;backgroundOutline=1;fillColor=#dae8fc;strokeColor=#6c8ebf;" parent="8Iiqby4rLfHwTd-ICCUl-5" vertex="1">
          <mxGeometry y="26" width="298" height="60" as="geometry" />
        </mxCell>
        <mxCell id="bw4s6GeorMwaDUn_Twlb-10" value="&lt;div style=&quot;text-align: left;&quot;&gt;&lt;span style=&quot;background-color: initial;&quot;&gt;éxecute la fonction suivante pour chaque composant&lt;/span&gt;&lt;br&gt;&lt;/div&gt;&lt;div style=&quot;text-align: left;&quot;&gt;&lt;span style=&quot;background-color: initial;&quot;&gt;update(TimeSpan t, LifeTime lifetime) {&lt;/span&gt;&lt;/div&gt;&lt;span style=&quot;&quot;&gt;&lt;div style=&quot;text-align: left;&quot;&gt;&lt;span style=&quot;background-color: initial;&quot;&gt;&lt;span style=&quot;white-space: pre;&quot;&gt; &lt;/span&gt;lifetime&lt;/span&gt;&lt;span style=&quot;background-color: initial;&quot;&gt;.update(t)&lt;/span&gt;&lt;/div&gt;&lt;/span&gt;&lt;div style=&quot;text-align: left;&quot;&gt;&lt;span style=&quot;background-color: initial;&quot;&gt;&lt;span style=&quot;white-space: pre;&quot;&gt; &lt;/span&gt;if(&lt;/span&gt;&lt;span style=&quot;background-color: initial;&quot;&gt;lifetime.&amp;nbsp;&lt;/span&gt;&lt;span style=&quot;background-color: initial;&quot;&gt;isLifeOver())&lt;/span&gt;&lt;/div&gt;&lt;span style=&quot;&quot;&gt;&lt;div style=&quot;text-align: left;&quot;&gt;&lt;span style=&quot;background-color: initial;&quot;&gt;&lt;span style=&quot;white-space: pre;&quot;&gt; &lt;/span&gt;&lt;span style=&quot;white-space: pre;&quot;&gt; &lt;/span&gt;lifetime.&lt;/span&gt;&lt;span style=&quot;background-color: initial;&quot;&gt;triggerEndOfLife()&lt;/span&gt;&lt;/div&gt;&lt;/span&gt;&lt;span style=&quot;&quot;&gt;&lt;div style=&quot;text-align: left;&quot;&gt;&lt;span style=&quot;background-color: initial;&quot;&gt;}&lt;/span&gt;&lt;/div&gt;&lt;/span&gt;" style="text;html=1;align=center;verticalAlign=middle;resizable=0;points=[];autosize=1;strokeColor=#6c8ebf;fillColor=#dae8fc;" parent="8Iiqby4rLfHwTd-ICCUl-5" vertex="1">
          <mxGeometry y="86" width="298" height="90" as="geometry" />
        </mxCell>
        <mxCell id="8Iiqby4rLfHwTd-ICCUl-7" value="AnimatedSpriteSystem" style="swimlane;fontStyle=0;align=center;verticalAlign=top;childLayout=stackLayout;horizontal=1;startSize=26;horizontalStack=0;resizeParent=1;resizeLast=0;collapsible=1;marginBottom=0;rounded=0;shadow=0;strokeWidth=1;fillColor=#dae8fc;strokeColor=#6c8ebf;" parent="1" vertex="1">
          <mxGeometry x="660" y="1020" width="300" height="136" as="geometry">
            <mxRectangle x="130" y="380" width="160" height="26" as="alternateBounds" />
          </mxGeometry>
        </mxCell>
        <mxCell id="Zo39dO2TL1DgSxrybfbA-1" value="&lt;span style=&quot;&quot;&gt;AnimatedSprite&lt;br&gt;&lt;/span&gt;" style="shape=process;whiteSpace=wrap;html=1;backgroundOutline=1;fillColor=#dae8fc;strokeColor=#6c8ebf;" parent="8Iiqby4rLfHwTd-ICCUl-7" vertex="1">
          <mxGeometry y="26" width="300" height="60" as="geometry" />
        </mxCell>
        <mxCell id="Zo39dO2TL1DgSxrybfbA-2" value="&lt;div style=&quot;&quot;&gt;&lt;br&gt;&lt;/div&gt;&lt;div style=&quot;&quot;&gt;Pour chaque composant AnimatedSprite des entité :&lt;/div&gt;&lt;div style=&quot;&quot;&gt;&lt;/div&gt;&lt;span style=&quot;white-space: pre;&quot;&gt; &lt;/span&gt;call function updateElapsedTime(TimeSpan)&lt;br&gt;" style="text;html=1;align=left;verticalAlign=middle;resizable=0;points=[];autosize=1;strokeColor=#6c8ebf;fillColor=#dae8fc;" parent="8Iiqby4rLfHwTd-ICCUl-7" vertex="1">
          <mxGeometry y="86" width="300" height="50" as="geometry" />
        </mxCell>
        <mxCell id="88iMN-DfQ2jqtCk-f6NN-1" value="InputSystem" style="swimlane;fontStyle=0;align=center;verticalAlign=top;childLayout=stackLayout;horizontal=1;startSize=26;horizontalStack=0;resizeParent=1;resizeLast=0;collapsible=1;marginBottom=0;rounded=0;shadow=0;strokeWidth=1;fillColor=#ffe6cc;strokeColor=#d79b00;" parent="1" vertex="1">
          <mxGeometry x="460" y="810" width="190" height="210" as="geometry">
            <mxRectangle x="130" y="380" width="160" height="26" as="alternateBounds" />
          </mxGeometry>
        </mxCell>
        <mxCell id="Qt5Hwxz0SV5FPjbtkHql-1" value="InputMapping" style="shape=process;whiteSpace=wrap;html=1;backgroundOutline=1;fillColor=#ffe6cc;strokeColor=#d79b00;" parent="88iMN-DfQ2jqtCk-f6NN-1" vertex="1">
          <mxGeometry y="26" width="190" height="60" as="geometry" />
        </mxCell>
        <mxCell id="Qt5Hwxz0SV5FPjbtkHql-2" value="&lt;div style=&quot;text-align: left;&quot;&gt;&lt;span style=&quot;background-color: initial;&quot;&gt;foreach component X with inputMapping&lt;/span&gt;&lt;/div&gt;&lt;div style=&quot;text-align: left;&quot;&gt;&lt;span style=&quot;background-color: initial;&quot;&gt;&lt;br&gt;&lt;/span&gt;&lt;/div&gt;&lt;span style=&quot;background-color: initial;&quot;&gt;&lt;div style=&quot;text-align: left;&quot;&gt;&lt;span style=&quot;background-color: initial;&quot;&gt;while(X.hasInput()) {&lt;/span&gt;&lt;/div&gt;&lt;/span&gt;&lt;span style=&quot;background-color: initial; white-space: pre;&quot;&gt;&lt;div style=&quot;text-align: left;&quot;&gt;&lt;span style=&quot;background-color: initial;&quot;&gt; &lt;/span&gt;&lt;span style=&quot;background-color: initial; white-space: normal;&quot;&gt;X.consumeNextInput()&lt;/span&gt;&lt;/div&gt;&lt;/span&gt;&lt;div style=&quot;text-align: left;&quot;&gt;&lt;span style=&quot;background-color: initial;&quot;&gt;}&lt;/span&gt;&lt;/div&gt;&lt;div style=&quot;text-align: left;&quot;&gt;&lt;br&gt;&lt;/div&gt;" style="rounded=0;whiteSpace=wrap;html=1;fillColor=#ffe6cc;strokeColor=#d79b00;" parent="88iMN-DfQ2jqtCk-f6NN-1" vertex="1">
          <mxGeometry y="86" width="190" height="124" as="geometry" />
        </mxCell>
        <mxCell id="zZ3e7JTyZusFRh9Q_RNK-1" value="" style="group" parent="1" vertex="1" connectable="0">
          <mxGeometry y="200" width="660" height="140" as="geometry" />
        </mxCell>
        <mxCell id="zZ3e7JTyZusFRh9Q_RNK-2" value="Color Legend&lt;br&gt;&lt;br&gt;&lt;br&gt;&lt;br&gt;&lt;br&gt;" style="rounded=0;whiteSpace=wrap;html=1;align=left;" parent="zZ3e7JTyZusFRh9Q_RNK-1" vertex="1">
          <mxGeometry width="660" height="100" as="geometry" />
        </mxCell>
        <mxCell id="zZ3e7JTyZusFRh9Q_RNK-3" value="under development" style="rounded=0;whiteSpace=wrap;html=1;fillColor=#ffe6cc;strokeColor=#d79b00;" parent="zZ3e7JTyZusFRh9Q_RNK-1" vertex="1">
          <mxGeometry x="345" y="30" width="120" height="60" as="geometry" />
        </mxCell>
        <mxCell id="zZ3e7JTyZusFRh9Q_RNK-4" value="designed" style="rounded=0;whiteSpace=wrap;html=1;fillColor=#dae8fc;strokeColor=#6c8ebf;" parent="zZ3e7JTyZusFRh9Q_RNK-1" vertex="1">
          <mxGeometry x="180" y="30" width="120" height="60" as="geometry" />
        </mxCell>
        <mxCell id="zZ3e7JTyZusFRh9Q_RNK-5" value="developped" style="rounded=0;whiteSpace=wrap;html=1;fillColor=#e1d5e7;strokeColor=#9673a6;" parent="zZ3e7JTyZusFRh9Q_RNK-1" vertex="1">
          <mxGeometry x="530" y="30" width="120" height="60" as="geometry" />
        </mxCell>
        <mxCell id="zZ3e7JTyZusFRh9Q_RNK-6" value="lack of design" style="rounded=0;whiteSpace=wrap;html=1;fillColor=#d5e8d4;strokeColor=#82b366;" parent="zZ3e7JTyZusFRh9Q_RNK-1" vertex="1">
          <mxGeometry x="20" y="30" width="120" height="60" as="geometry" />
        </mxCell>
        <mxCell id="-20b2ePtBCIvTGPVq5cF-1" value="MovementSystem" style="swimlane;fontStyle=0;align=center;verticalAlign=top;childLayout=stackLayout;horizontal=1;startSize=26;horizontalStack=0;resizeParent=1;resizeLast=0;collapsible=1;marginBottom=0;rounded=0;shadow=0;strokeWidth=1;fillColor=#ffe6cc;strokeColor=#d79b00;" parent="1" vertex="1">
          <mxGeometry x="985" y="810" width="455" height="290" as="geometry">
            <mxRectangle x="130" y="380" width="160" height="26" as="alternateBounds" />
          </mxGeometry>
        </mxCell>
        <mxCell id="-20b2ePtBCIvTGPVq5cF-2" value="Position&lt;span style=&quot;&quot;&gt;&lt;br&gt;&lt;br&gt;MoveSpeed (option1)&lt;/span&gt;&lt;br&gt;Orientation (option1)&lt;br&gt;&lt;br&gt;HitBox (option2)" style="shape=process;whiteSpace=wrap;html=1;backgroundOutline=1;fillColor=#ffe6cc;strokeColor=#d79b00;" parent="-20b2ePtBCIvTGPVq5cF-1" vertex="1">
          <mxGeometry y="26" width="455" height="104" as="geometry" />
        </mxCell>
        <mxCell id="0oH_ZyeGxlSqtF53_P6Y-1" value="Quadtree avec les positions des éléments statique et sans LifeTime&lt;br&gt;ArrayList avec les positions des éléments dynamique et sans LifeTime&lt;br&gt;List avec les positions des éléments avec LifeTime" style="rounded=1;whiteSpace=wrap;html=1;fillColor=#ffe6cc;strokeColor=#d79b00;" parent="-20b2ePtBCIvTGPVq5cF-1" vertex="1">
          <mxGeometry y="130" width="455" height="60" as="geometry" />
        </mxCell>
        <mxCell id="-20b2ePtBCIvTGPVq5cF-3" value="&lt;div style=&quot;&quot;&gt;Réalise les mouvements sans considérations pour des collisions&lt;/div&gt;&lt;div style=&quot;&quot;&gt;Détecte les collisions des hitbox&lt;/div&gt;&lt;div style=&quot;&quot;&gt;Pour chaque collision&lt;/div&gt;&lt;div style=&quot;&quot;&gt;&lt;span style=&quot;white-space: pre;&quot;&gt; &lt;/span&gt;Appel au CollisionManager&lt;/div&gt;&lt;div style=&quot;&quot;&gt;&lt;span style=&quot;white-space: pre;&quot;&gt; &lt;/span&gt;Si chevauchement interdit&lt;br&gt;&lt;/div&gt;&lt;div style=&quot;&quot;&gt;&lt;span style=&quot;background-color: initial;&quot;&gt;&lt;span style=&quot;white-space: pre;&quot;&gt; &lt;/span&gt;&lt;span style=&quot;white-space: pre;&quot;&gt; &lt;/span&gt;Ajuste les déplacements&lt;/span&gt;&lt;/div&gt;&lt;div style=&quot;&quot;&gt;&lt;br&gt;&lt;/div&gt;" style="text;html=1;align=left;verticalAlign=middle;resizable=0;points=[];autosize=1;strokeColor=#d79b00;fillColor=#ffe6cc;" parent="-20b2ePtBCIvTGPVq5cF-1" vertex="1">
          <mxGeometry y="190" width="455" height="100" as="geometry" />
        </mxCell>
        <mxCell id="N4ZMBUj3eIkcrDxRLFxg-25" value="BackPackSystem" style="swimlane;fontStyle=0;align=center;verticalAlign=top;childLayout=stackLayout;horizontal=1;startSize=26;horizontalStack=0;resizeParent=1;resizeLast=0;collapsible=1;marginBottom=0;rounded=0;shadow=0;strokeWidth=1;fillColor=#d5e8d4;strokeColor=#82b366;" parent="1" vertex="1">
          <mxGeometry x="250" y="810" width="200" height="116" as="geometry">
            <mxRectangle x="130" y="380" width="160" height="26" as="alternateBounds" />
          </mxGeometry>
        </mxCell>
        <mxCell id="N4ZMBUj3eIkcrDxRLFxg-28" value="&lt;div style=&quot;&quot;&gt;&lt;span style=&quot;background-color: initial;&quot;&gt;BackPack&lt;/span&gt;&lt;/div&gt;" style="shape=process;whiteSpace=wrap;html=1;backgroundOutline=1;fillColor=#d5e8d4;strokeColor=#82b366;align=center;" parent="N4ZMBUj3eIkcrDxRLFxg-25" vertex="1">
          <mxGeometry y="26" width="200" height="90" as="geometry" />
        </mxCell>
        <mxCell id="QbpFtyjIVfLNRK4MVuk5-5" style="edgeStyle=none;rounded=0;orthogonalLoop=1;jettySize=auto;html=1;startArrow=oval;startFill=1;endArrow=oval;endFill=1;" parent="1" source="5BWAA_n0XlcW4cJ3aUh0-3" target="-20b2ePtBCIvTGPVq5cF-3" edge="1">
          <mxGeometry relative="1" as="geometry" />
        </mxCell>
        <mxCell id="5BWAA_n0XlcW4cJ3aUh0-3" value="&lt;p style=&quot;margin:0px;margin-top:6px;text-align:center;&quot;&gt;&lt;b&gt;CollisionManager&lt;/b&gt;&lt;/p&gt;&lt;hr&gt;&lt;div&gt;bool ResolveCollision(IEntity entity1, IEntity entity2)&lt;/div&gt;&lt;div&gt;&lt;/div&gt;&lt;div&gt;&lt;hr&gt;&lt;/div&gt;&lt;div&gt;&lt;span style=&quot;background-color: initial;&quot;&gt;Résout la collision&lt;/span&gt;&lt;/div&gt;&lt;div&gt;&lt;span style=&quot;background-color: initial;&quot;&gt;Retourne vrai si le chevauchement est autorisée, faut sinon.&lt;/span&gt;&lt;/div&gt;&lt;div&gt;&lt;span style=&quot;background-color: initial;&quot;&gt;&lt;br&gt;&lt;/span&gt;&lt;/div&gt;&lt;div&gt;&lt;span style=&quot;background-color: initial;&quot;&gt;Exemple 1 : ICharacter et &lt;/span&gt;&lt;span style=&quot;background-color: initial;&quot;&gt;IBlaze&lt;/span&gt;&lt;br&gt;&lt;/div&gt;&lt;div&gt;-&amp;gt; créer composant DamageTaken pour appel au DamageCalculator&lt;br&gt;&lt;/div&gt;&lt;div&gt;-&amp;gt; return true&lt;/div&gt;&lt;div&gt;&lt;br&gt;&lt;/div&gt;&lt;div&gt;Exemple 3 : ICharacter&amp;nbsp; a une collision avec IField&lt;/div&gt;&lt;div&gt;-&amp;gt; déclencher un son&lt;/div&gt;&lt;div&gt;-&amp;gt; return false&lt;/div&gt;" style="align=left;overflow=fill;html=1;dropTarget=0;fillColor=#dae8fc;strokeColor=#6c8ebf;" parent="1" vertex="1">
          <mxGeometry x="1002.5" y="1140" width="420" height="240" as="geometry" />
        </mxCell>
        <mxCell id="5BWAA_n0XlcW4cJ3aUh0-4" value="" style="shape=component;jettyWidth=8;jettyHeight=4;" parent="5BWAA_n0XlcW4cJ3aUh0-3" vertex="1">
          <mxGeometry x="1" width="20" height="20" relative="1" as="geometry">
            <mxPoint x="-24" y="4" as="offset" />
          </mxGeometry>
        </mxCell>
        <mxCell id="QbpFtyjIVfLNRK4MVuk5-4" style="edgeStyle=none;rounded=0;orthogonalLoop=1;jettySize=auto;html=1;entryX=0.5;entryY=1;entryDx=0;entryDy=0;startArrow=oval;startFill=1;endArrow=oval;endFill=1;" parent="1" source="5BWAA_n0XlcW4cJ3aUh0-7" target="5BWAA_n0XlcW4cJ3aUh0-3" edge="1">
          <mxGeometry relative="1" as="geometry" />
        </mxCell>
        <mxCell id="5BWAA_n0XlcW4cJ3aUh0-7" value="&lt;p style=&quot;margin:0px;margin-top:6px;text-align:center;&quot;&gt;&lt;b&gt;DamageManager&lt;/b&gt;&lt;/p&gt;&lt;hr&gt;&lt;div&gt;&lt;div&gt;void ApplyDamage(IEntity target, IEntity damageDealer)&lt;/div&gt;&lt;div&gt;&lt;hr&gt;&lt;div&gt;int damage= computeDamage(???)&lt;/div&gt;&lt;div&gt;&lt;br&gt;&lt;/div&gt;&lt;div&gt;target-&amp;gt;Health-&amp;gt;&lt;span style=&quot;background-color: initial;&quot;&gt;update(damage)&lt;/span&gt;&lt;/div&gt;&lt;div&gt;if (target-&amp;gt;Health-&amp;gt;isDead())&lt;span style=&quot;background-color: initial;&quot;&gt; &lt;/span&gt;&lt;/div&gt;&lt;div&gt;{&lt;/div&gt;&lt;div&gt;&lt;span style=&quot;&quot;&gt; &lt;/span&gt;&lt;span style=&quot;white-space: pre;&quot;&gt; &lt;/span&gt;target-&amp;gt;Health-&amp;gt;triggerDeath()&lt;/div&gt;&lt;/div&gt;&lt;/div&gt;&lt;div&gt;}&lt;/div&gt;" style="align=left;overflow=fill;html=1;dropTarget=0;fillColor=#dae8fc;strokeColor=#6c8ebf;" parent="1" vertex="1">
          <mxGeometry x="1037.5" y="1410" width="350" height="240" as="geometry" />
        </mxCell>
        <mxCell id="5BWAA_n0XlcW4cJ3aUh0-8" value="" style="shape=component;jettyWidth=8;jettyHeight=4;" parent="5BWAA_n0XlcW4cJ3aUh0-7" vertex="1">
          <mxGeometry x="1" width="20" height="20" relative="1" as="geometry">
            <mxPoint x="-24" y="4" as="offset" />
          </mxGeometry>
        </mxCell>
        <mxCell id="5BWAA_n0XlcW4cJ3aUh0-9" value="" style="group" parent="1" vertex="1" connectable="0">
          <mxGeometry x="660" width="560" height="290" as="geometry" />
        </mxCell>
        <mxCell id="ZBUVsZiDvjBQHubhWyUc-1" value="" style="group" parent="5BWAA_n0XlcW4cJ3aUh0-9" vertex="1" connectable="0">
          <mxGeometry width="560" height="290" as="geometry" />
        </mxCell>
        <mxCell id="ZBUVsZiDvjBQHubhWyUc-2" value="Box Legend&lt;br&gt;&lt;br&gt;&lt;br&gt;&lt;br&gt;&lt;br&gt;&lt;br&gt;&lt;br&gt;&lt;br&gt;&lt;br&gt;&lt;br&gt;&lt;br&gt;&lt;br&gt;&lt;br&gt;&lt;br&gt;&lt;br&gt;&lt;br&gt;&lt;br&gt;&lt;br&gt;" style="rounded=0;whiteSpace=wrap;html=1;align=left;" parent="ZBUVsZiDvjBQHubhWyUc-1" vertex="1">
          <mxGeometry y="9.5" width="560" height="290" as="geometry" />
        </mxCell>
        <mxCell id="ZBUVsZiDvjBQHubhWyUc-3" value="System Name" style="swimlane;fontStyle=0;align=center;verticalAlign=top;childLayout=stackLayout;horizontal=1;startSize=29;horizontalStack=0;resizeParent=1;resizeLast=0;collapsible=1;marginBottom=0;rounded=0;shadow=0;strokeWidth=1;fillColor=#f5f5f5;strokeColor=#666666;fontColor=#333333;" parent="ZBUVsZiDvjBQHubhWyUc-1" vertex="1">
          <mxGeometry x="10" y="81" width="260" height="209" as="geometry">
            <mxRectangle x="130" y="380" width="160" height="26" as="alternateBounds" />
          </mxGeometry>
        </mxCell>
        <mxCell id="ZBUVsZiDvjBQHubhWyUc-6" value="Liste des composants nécessaires" style="shape=process;whiteSpace=wrap;html=1;backgroundOutline=1;fillColor=#f5f5f5;fontColor=#333333;strokeColor=#666666;" parent="ZBUVsZiDvjBQHubhWyUc-3" vertex="1">
          <mxGeometry y="29" width="260" height="60" as="geometry" />
        </mxCell>
        <mxCell id="iQJBiDj6K4A6Bv191hJK-5" value="Eléments private" style="rounded=1;whiteSpace=wrap;html=1;fillColor=#f5f5f5;fontColor=#333333;strokeColor=#666666;" parent="ZBUVsZiDvjBQHubhWyUc-3" vertex="1">
          <mxGeometry y="89" width="260" height="60" as="geometry" />
        </mxCell>
        <mxCell id="ZBUVsZiDvjBQHubhWyUc-5" value="Description de&amp;nbsp;update()" style="rounded=0;whiteSpace=wrap;html=1;fillColor=#f5f5f5;strokeColor=#666666;fontColor=#333333;" parent="ZBUVsZiDvjBQHubhWyUc-3" vertex="1">
          <mxGeometry y="149" width="260" height="60" as="geometry" />
        </mxCell>
        <mxCell id="5BWAA_n0XlcW4cJ3aUh0-5" value="&lt;p style=&quot;margin:0px;margin-top:6px;text-align:center;&quot;&gt;&lt;b&gt;Manager name&lt;/b&gt;&lt;/p&gt;&lt;hr&gt;&lt;div&gt;&lt;span style=&quot;background-color: initial;&quot;&gt;en-tête de la fonction (peut être surchargée)&lt;/span&gt;&lt;br&gt;&lt;/div&gt;&lt;div&gt;&lt;hr&gt;&lt;/div&gt;&lt;div&gt;description de la fonction&lt;/div&gt;&lt;div&gt;&lt;br&gt;&lt;/div&gt;" style="align=left;overflow=fill;html=1;dropTarget=0;fillColor=#f5f5f5;strokeColor=#666666;fontColor=#333333;" parent="ZBUVsZiDvjBQHubhWyUc-1" vertex="1">
          <mxGeometry x="296" y="80" width="250" height="210" as="geometry" />
        </mxCell>
        <mxCell id="5BWAA_n0XlcW4cJ3aUh0-6" value="" style="shape=component;jettyWidth=8;jettyHeight=4;" parent="5BWAA_n0XlcW4cJ3aUh0-5" vertex="1">
          <mxGeometry x="1" width="20" height="20" relative="1" as="geometry">
            <mxPoint x="-24" y="4" as="offset" />
          </mxGeometry>
        </mxCell>
        <mxCell id="5BWAA_n0XlcW4cJ3aUh0-10" value="Class System" style="text;html=1;strokeColor=none;fillColor=none;align=center;verticalAlign=middle;whiteSpace=wrap;rounded=0;" parent="ZBUVsZiDvjBQHubhWyUc-1" vertex="1">
          <mxGeometry x="110" y="50" width="60" height="30" as="geometry" />
        </mxCell>
        <mxCell id="5BWAA_n0XlcW4cJ3aUh0-11" value="Algorithme pour une fonctionalité" style="text;html=1;strokeColor=none;fillColor=none;align=center;verticalAlign=middle;whiteSpace=wrap;rounded=0;" parent="ZBUVsZiDvjBQHubhWyUc-1" vertex="1">
          <mxGeometry x="360" y="50" width="91" height="30" as="geometry" />
        </mxCell>
        <mxCell id="n0HGgdC2rVfDf1BQgTgn-1" value="GlobalSystem" style="swimlane;fontStyle=2;align=center;verticalAlign=top;childLayout=stackLayout;horizontal=1;startSize=26;horizontalStack=0;resizeParent=1;resizeLast=0;collapsible=1;marginBottom=0;rounded=0;shadow=0;strokeWidth=1;fillColor=#ffe6cc;strokeColor=#d79b00;" parent="1" vertex="1">
          <mxGeometry x="10" y="330" width="530" height="310" as="geometry">
            <mxRectangle x="220" y="120" width="160" height="26" as="alternateBounds" />
          </mxGeometry>
        </mxCell>
        <mxCell id="n0HGgdC2rVfDf1BQgTgn-2" value="&lt;blockquote style=&quot;margin: 0 0 0 40px; border: none; padding: 0px;&quot;&gt;Collection&amp;lt;std::shared_ptr&amp;lt;IEntity&amp;gt;&amp;gt; _generatedEntities&lt;br&gt;Collection&amp;lt;std::shared_ptr&amp;lt;IEntity&amp;gt;&amp;gt; _updatedEntities&lt;br&gt;Collection&amp;lt;UUID&amp;gt; _deletedEntities&lt;/blockquote&gt;&lt;blockquote style=&quot;margin: 0 0 0 40px; border: none; padding: 0px;&quot;&gt;Array&amp;lt;std::unique_ptr&amp;lt;ILogicalSystem&amp;gt;&amp;gt; _logicalSystems&lt;br&gt;&lt;/blockquote&gt;&lt;blockquote style=&quot;margin: 0 0 0 40px; border: none; padding: 0px;&quot;&gt;Array&amp;lt;std::unique_ptr&amp;lt;IRendererSystem&amp;gt;&amp;gt; _rendererSystems&lt;br&gt;&lt;/blockquote&gt;" style="rounded=1;whiteSpace=wrap;html=1;labelBackgroundColor=none;fillColor=#ffe6cc;strokeColor=#d79b00;align=left;" parent="n0HGgdC2rVfDf1BQgTgn-1" vertex="1">
          <mxGeometry y="26" width="530" height="114" as="geometry" />
        </mxCell>
        <mxCell id="n0HGgdC2rVfDf1BQgTgn-3" value="public:&lt;br&gt;&lt;blockquote style=&quot;margin: 0 0 0 40px; border: none; padding: 0px;&quot;&gt;void onEntityComposentUpdated(IEntity* updatedEntity)&lt;br&gt;void onEntityDelation(UUID deletedEntity)&lt;br&gt;void onEntityGeneration(IEntity* generatedEntity)&lt;br&gt;void updateLogicalSystems(TimeSpan elapsedTime)&lt;/blockquote&gt;&lt;blockquote style=&quot;margin: 0 0 0 40px; border: none; padding: 0px;&quot;&gt;void callRendererSystems(RendererTarget target)&lt;br&gt;&lt;/blockquote&gt;private:&lt;br&gt;&lt;blockquote style=&quot;margin: 0 0 0 40px; border: none; padding: 0px;&quot;&gt;void addAndRemoveUpdatedEntities()&lt;br&gt;void addAllGeneratedEntities()&lt;br&gt;void removeAllDeletedEntities()&lt;/blockquote&gt;" style="rounded=0;whiteSpace=wrap;html=1;labelBackgroundColor=none;fillColor=#ffe6cc;strokeColor=#d79b00;align=left;" parent="n0HGgdC2rVfDf1BQgTgn-1" vertex="1">
          <mxGeometry y="140" width="530" height="170" as="geometry" />
        </mxCell>
        <mxCell id="n0HGgdC2rVfDf1BQgTgn-5" value="&lt;b&gt;Singleton&lt;/b&gt;" style="text;html=1;align=center;verticalAlign=middle;resizable=0;points=[];autosize=1;strokeColor=#d79b00;fillColor=#ffe6cc;" parent="1" vertex="1">
          <mxGeometry x="10" y="310" width="70" height="20" as="geometry" />
        </mxCell>
        <mxCell id="9CGX7eievHVfjkbiZJNF-1" value="&lt;h1&gt;System&lt;/h1&gt;&lt;p&gt;Un objet &lt;b&gt;System &lt;/b&gt;manipule les &lt;b&gt;Components&lt;/b&gt; de tous les &lt;b&gt;Entity &lt;/b&gt;qui contient certains objet &lt;b&gt;Component&lt;/b&gt;.&lt;br&gt;La règle déterminant quels &lt;b&gt;Component &lt;/b&gt;un &lt;b&gt;Entity &lt;/b&gt;doit avoir pour être géré par le &lt;b&gt;System&amp;nbsp;&lt;/b&gt;est écrit en dur dans le code.&lt;/p&gt;&lt;p&gt;&lt;span style=&quot;background-color: initial;&quot;&gt;Toutes les classes représentant un objet &lt;b&gt;System &lt;/b&gt;doivent héritées de l&#39;interface &lt;/span&gt;&lt;span style=&quot;background-color: initial;&quot;&gt;&lt;b&gt;ILogicSystem &lt;/b&gt;ou&lt;b&gt;&amp;nbsp;&lt;/b&gt;&lt;/span&gt;&lt;span style=&quot;background-color: initial;&quot;&gt;&lt;b&gt;IRendererSystem&lt;/b&gt;, selon que le système contribue à la mise à jour &quot;logique&quot; ou &quot;graphique&quot; jeux.&lt;/span&gt;&lt;/p&gt;Le singleton GlobalSystem référence tous les systèmes et fait office d&#39;interface avec le reste du code.&lt;br&gt;&lt;br&gt;La fonction&amp;nbsp;&lt;b&gt;GlobalSystem-&amp;gt;updateLogicalSystems()&lt;/b&gt;&amp;nbsp;constitue la première étape de la&amp;nbsp;&lt;i&gt;GameLoop&lt;br&gt;&lt;/i&gt;La fonction&amp;nbsp;&lt;b&gt;GlobalSystem-&amp;gt;updateRendererSystems()&lt;/b&gt;&amp;nbsp;constitue la deuxième étape de la&amp;nbsp;&lt;i&gt;GameLoop&lt;br&gt;&lt;/i&gt;" style="text;html=1;strokeColor=#0e8088;fillColor=#b0e3e6;spacing=5;spacingTop=-20;whiteSpace=wrap;overflow=hidden;rounded=0;" parent="1" vertex="1">
          <mxGeometry y="10" width="660" height="190" as="geometry" />
        </mxCell>
        <mxCell id="Gve_sUssWLZCbJ6OatwW-21" style="edgeStyle=orthogonalEdgeStyle;rounded=0;orthogonalLoop=1;jettySize=auto;html=1;strokeWidth=1;" parent="1" source="Gve_sUssWLZCbJ6OatwW-1" target="KQKHP7AOvHA5t0i82Qb--2" edge="1">
          <mxGeometry relative="1" as="geometry" />
        </mxCell>
        <mxCell id="Gve_sUssWLZCbJ6OatwW-1" value="ILogicalSystem" style="swimlane;fontStyle=2;align=center;verticalAlign=top;childLayout=stackLayout;horizontal=1;startSize=26;horizontalStack=0;resizeParent=1;resizeLast=0;collapsible=1;marginBottom=0;rounded=0;shadow=0;strokeWidth=1;fillColor=#dae8fc;strokeColor=#6c8ebf;" parent="1" vertex="1">
          <mxGeometry x="1000" y="590" width="420" height="126" as="geometry">
            <mxRectangle x="220" y="120" width="160" height="26" as="alternateBounds" />
          </mxGeometry>
        </mxCell>
        <mxCell id="Gve_sUssWLZCbJ6OatwW-3" value="public :&lt;br&gt;&lt;blockquote style=&quot;margin: 0 0 0 40px; border: none; padding: 0px;&quot;&gt;virtual void update([[maybe_unused]] TimeSpan elapsedTime)&lt;/blockquote&gt;" style="rounded=0;whiteSpace=wrap;html=1;labelBackgroundColor=none;fillColor=#dae8fc;strokeColor=#6c8ebf;align=left;" parent="Gve_sUssWLZCbJ6OatwW-1" vertex="1">
          <mxGeometry y="26" width="420" height="100" as="geometry" />
        </mxCell>
        <mxCell id="Gve_sUssWLZCbJ6OatwW-4" value="&lt;b&gt;Système pour la&amp;nbsp;&lt;span style=&quot;text-align: left;&quot;&gt;1&lt;sup&gt;ère&amp;nbsp;&lt;/sup&gt;étape de la&amp;nbsp;&lt;/span&gt;&lt;i style=&quot;text-align: left;&quot;&gt;GameLoop&lt;/i&gt;&lt;/b&gt;" style="text;html=1;align=center;verticalAlign=middle;resizable=0;points=[];autosize=1;strokeColor=#6c8ebf;fillColor=#dae8fc;" parent="1" vertex="1">
          <mxGeometry x="920" y="570" width="260" height="20" as="geometry" />
        </mxCell>
        <mxCell id="Gve_sUssWLZCbJ6OatwW-13" value="" style="group" parent="1" vertex="1" connectable="0">
          <mxGeometry x="1060" y="340" width="830" height="190" as="geometry" />
        </mxCell>
        <mxCell id="8Iiqby4rLfHwTd-ICCUl-1" value="ISystem" style="swimlane;fontStyle=2;align=center;verticalAlign=top;childLayout=stackLayout;horizontal=1;startSize=26;horizontalStack=0;resizeParent=1;resizeLast=0;collapsible=1;marginBottom=0;rounded=0;shadow=0;strokeWidth=1;fillColor=#dae8fc;strokeColor=#6c8ebf;" parent="Gve_sUssWLZCbJ6OatwW-13" vertex="1">
          <mxGeometry y="20" width="830" height="170" as="geometry">
            <mxRectangle x="220" y="120" width="160" height="26" as="alternateBounds" />
          </mxGeometry>
        </mxCell>
        <mxCell id="KQKHP7AOvHA5t0i82Qb--3" value="&lt;blockquote style=&quot;margin: 0 0 0 40px; border: none; padding: 0px;&quot;&gt;std::unordered_set&amp;lt;typeEntité&amp;gt; _interests&lt;br&gt;std::unordered_map&amp;lt;UUID, std::shared_ptr&amp;lt;IEntity&amp;gt;&amp;gt; _entities&lt;/blockquote&gt;" style="rounded=1;whiteSpace=wrap;html=1;labelBackgroundColor=none;fillColor=#dae8fc;strokeColor=#6c8ebf;align=left;" parent="8Iiqby4rLfHwTd-ICCUl-1" vertex="1">
          <mxGeometry y="26" width="830" height="44" as="geometry" />
        </mxCell>
        <mxCell id="KQKHP7AOvHA5t0i82Qb--2" value="public :&lt;br&gt;&lt;blockquote style=&quot;margin: 0 0 0 40px; border: none; padding: 0px;&quot;&gt;bool addEntity(std::shared_ptr&amp;lt;IEntity&amp;gt; entity&amp;gt;()&lt;br&gt;void removeEntity(UUID entityId)&lt;br&gt;&lt;/blockquote&gt;protected :&amp;nbsp;&lt;br&gt;&lt;span style=&quot;white-space: pre;&quot;&gt; &lt;/span&gt;virtual bool isInterested(IEntity* entity)" style="rounded=0;whiteSpace=wrap;html=1;labelBackgroundColor=none;fillColor=#dae8fc;strokeColor=#6c8ebf;align=left;" parent="8Iiqby4rLfHwTd-ICCUl-1" vertex="1">
          <mxGeometry y="70" width="830" height="100" as="geometry" />
        </mxCell>
        <mxCell id="UEvypBXQMqkoSdE9OCei-1" value="&lt;b&gt;class parent communes à tous&lt;/b&gt;" style="text;html=1;align=center;verticalAlign=middle;resizable=0;points=[];autosize=1;strokeColor=#6c8ebf;fillColor=#dae8fc;" parent="Gve_sUssWLZCbJ6OatwW-13" vertex="1">
          <mxGeometry width="190" height="20" as="geometry" />
        </mxCell>
        <mxCell id="Gve_sUssWLZCbJ6OatwW-16" value="" style="group" parent="1" vertex="1" connectable="0">
          <mxGeometry x="1550" y="570" width="420" height="190" as="geometry" />
        </mxCell>
        <mxCell id="Gve_sUssWLZCbJ6OatwW-5" value="IRendererSystem" style="swimlane;fontStyle=2;align=center;verticalAlign=top;childLayout=stackLayout;horizontal=1;startSize=26;horizontalStack=0;resizeParent=1;resizeLast=0;collapsible=1;marginBottom=0;rounded=0;shadow=0;strokeWidth=1;fillColor=#dae8fc;strokeColor=#6c8ebf;" parent="Gve_sUssWLZCbJ6OatwW-16" vertex="1">
          <mxGeometry y="20" width="420" height="126" as="geometry">
            <mxRectangle x="220" y="120" width="160" height="26" as="alternateBounds" />
          </mxGeometry>
        </mxCell>
        <mxCell id="Gve_sUssWLZCbJ6OatwW-7" value="public :&lt;br&gt;&lt;blockquote style=&quot;margin: 0px 0px 0px 40px; border: none; padding: 0px;&quot;&gt;virtual void render(RendererTarget target)&lt;/blockquote&gt;" style="rounded=0;whiteSpace=wrap;html=1;labelBackgroundColor=none;fillColor=#dae8fc;strokeColor=#6c8ebf;align=left;" parent="Gve_sUssWLZCbJ6OatwW-5" vertex="1">
          <mxGeometry y="26" width="420" height="100" as="geometry" />
        </mxCell>
        <mxCell id="Gve_sUssWLZCbJ6OatwW-19" value="" style="endArrow=none;html=1;rounded=0;strokeWidth=5;" parent="1" edge="1">
          <mxGeometry width="50" height="50" relative="1" as="geometry">
            <mxPoint x="1480" y="2280" as="sourcePoint" />
            <mxPoint x="1480" y="640" as="targetPoint" />
          </mxGeometry>
        </mxCell>
        <mxCell id="Gve_sUssWLZCbJ6OatwW-22" style="edgeStyle=orthogonalEdgeStyle;rounded=0;orthogonalLoop=1;jettySize=auto;html=1;strokeWidth=1;" parent="1" source="Gve_sUssWLZCbJ6OatwW-5" target="KQKHP7AOvHA5t0i82Qb--2" edge="1">
          <mxGeometry relative="1" as="geometry" />
        </mxCell>
        <mxCell id="Gve_sUssWLZCbJ6OatwW-11" value="&lt;b&gt;Système pour la&amp;nbsp;&lt;span style=&quot;text-align: left;&quot;&gt;2&lt;sup&gt;ème&lt;/sup&gt; étape de la&amp;nbsp;&lt;/span&gt;&lt;i style=&quot;text-align: left;&quot;&gt;GameLoop&lt;/i&gt;&lt;/b&gt;" style="text;html=1;align=center;verticalAlign=middle;resizable=0;points=[];autosize=1;strokeColor=#6c8ebf;fillColor=#dae8fc;" parent="1" vertex="1">
          <mxGeometry x="1790" y="570" width="270" height="20" as="geometry" />
        </mxCell>
        <mxCell id="Gve_sUssWLZCbJ6OatwW-25" value="AnimatedSpriteRendererSystem" style="swimlane;fontStyle=0;align=center;verticalAlign=top;childLayout=stackLayout;horizontal=1;startSize=26;horizontalStack=0;resizeParent=1;resizeLast=0;collapsible=1;marginBottom=0;rounded=0;shadow=0;strokeWidth=1;fillColor=#dae8fc;strokeColor=#6c8ebf;" parent="1" vertex="1">
          <mxGeometry x="1550" y="810" width="300" height="106" as="geometry">
            <mxRectangle x="130" y="380" width="160" height="26" as="alternateBounds" />
          </mxGeometry>
        </mxCell>
        <mxCell id="Gve_sUssWLZCbJ6OatwW-26" value="&lt;span style=&quot;&quot;&gt;Position&lt;br&gt;AnimatedSprite&lt;br&gt;&lt;/span&gt;" style="shape=process;whiteSpace=wrap;html=1;backgroundOutline=1;fillColor=#dae8fc;strokeColor=#6c8ebf;" parent="Gve_sUssWLZCbJ6OatwW-25" vertex="1">
          <mxGeometry y="26" width="300" height="60" as="geometry" />
        </mxCell>
        <mxCell id="Gve_sUssWLZCbJ6OatwW-27" value="&lt;div style=&quot;&quot;&gt;&lt;/div&gt;Afficher le sprite" style="text;html=1;align=left;verticalAlign=middle;resizable=0;points=[];autosize=1;strokeColor=#6c8ebf;fillColor=#dae8fc;" parent="Gve_sUssWLZCbJ6OatwW-25" vertex="1">
          <mxGeometry y="86" width="300" height="20" as="geometry" />
        </mxCell>
        <mxCell id="Gve_sUssWLZCbJ6OatwW-28" value="SpriteRendererSystem" style="swimlane;fontStyle=0;align=center;verticalAlign=top;childLayout=stackLayout;horizontal=1;startSize=26;horizontalStack=0;resizeParent=1;resizeLast=0;collapsible=1;marginBottom=0;rounded=0;shadow=0;strokeWidth=1;fillColor=#dae8fc;strokeColor=#6c8ebf;" parent="1" vertex="1">
          <mxGeometry x="1908" y="810" width="300" height="106" as="geometry">
            <mxRectangle x="130" y="380" width="160" height="26" as="alternateBounds" />
          </mxGeometry>
        </mxCell>
        <mxCell id="Gve_sUssWLZCbJ6OatwW-29" value="&lt;span style=&quot;&quot;&gt;Position&lt;br&gt;SpriteSprite&lt;br&gt;&lt;/span&gt;" style="shape=process;whiteSpace=wrap;html=1;backgroundOutline=1;fillColor=#dae8fc;strokeColor=#6c8ebf;" parent="Gve_sUssWLZCbJ6OatwW-28" vertex="1">
          <mxGeometry y="26" width="300" height="60" as="geometry" />
        </mxCell>
        <mxCell id="Gve_sUssWLZCbJ6OatwW-30" value="&lt;div style=&quot;&quot;&gt;&lt;/div&gt;Afficher le sprite" style="text;html=1;align=left;verticalAlign=middle;resizable=0;points=[];autosize=1;strokeColor=#6c8ebf;fillColor=#dae8fc;" parent="Gve_sUssWLZCbJ6OatwW-28" vertex="1">
          <mxGeometry y="86" width="300" height="20" as="geometry" />
        </mxCell>
      </root>
    </mxGraphModel>
  </diagram>
  <diagram id="SQ9qiCxTKGR1hxBe-CxH" name="Service">
    <mxGraphModel dx="133" dy="587" grid="1" gridSize="10" guides="1" tooltips="1" connect="1" arrows="1" fold="1" page="1" pageScale="1" pageWidth="827" pageHeight="1169" math="0" shadow="0">
      <root>
        <mxCell id="0" />
        <mxCell id="1" parent="0" />
        <mxCell id="r55LgIEDouDL3FjnG4zY-1" value="" style="group" parent="1" vertex="1" connectable="0">
          <mxGeometry x="830" y="180" width="660" height="140" as="geometry" />
        </mxCell>
        <mxCell id="r55LgIEDouDL3FjnG4zY-2" value="Color Legend&lt;br&gt;&lt;br&gt;&lt;br&gt;&lt;br&gt;&lt;br&gt;&lt;br&gt;&lt;br&gt;&lt;br&gt;" style="rounded=0;whiteSpace=wrap;html=1;align=left;" parent="r55LgIEDouDL3FjnG4zY-1" vertex="1">
          <mxGeometry width="660" height="140" as="geometry" />
        </mxCell>
        <mxCell id="r55LgIEDouDL3FjnG4zY-3" value="under development" style="rounded=0;whiteSpace=wrap;html=1;fillColor=#ffe6cc;strokeColor=#d79b00;" parent="r55LgIEDouDL3FjnG4zY-1" vertex="1">
          <mxGeometry x="345" y="60" width="120" height="60" as="geometry" />
        </mxCell>
        <mxCell id="r55LgIEDouDL3FjnG4zY-4" value="designed" style="rounded=0;whiteSpace=wrap;html=1;fillColor=#dae8fc;strokeColor=#6c8ebf;" parent="r55LgIEDouDL3FjnG4zY-1" vertex="1">
          <mxGeometry x="180" y="60" width="120" height="60" as="geometry" />
        </mxCell>
        <mxCell id="r55LgIEDouDL3FjnG4zY-5" value="developped" style="rounded=0;whiteSpace=wrap;html=1;fillColor=#e1d5e7;strokeColor=#9673a6;" parent="r55LgIEDouDL3FjnG4zY-1" vertex="1">
          <mxGeometry x="530" y="60" width="120" height="60" as="geometry" />
        </mxCell>
        <mxCell id="r55LgIEDouDL3FjnG4zY-6" value="lack of design" style="rounded=0;whiteSpace=wrap;html=1;fillColor=#d5e8d4;strokeColor=#82b366;" parent="r55LgIEDouDL3FjnG4zY-1" vertex="1">
          <mxGeometry x="20" y="60" width="120" height="60" as="geometry" />
        </mxCell>
        <mxCell id="fiVs_0KenUPg4ujk_l5u-1" value="IService" style="swimlane;fontStyle=2;align=center;verticalAlign=top;childLayout=stackLayout;horizontal=1;startSize=26;horizontalStack=0;resizeParent=1;resizeLast=0;collapsible=1;marginBottom=0;rounded=0;shadow=0;strokeWidth=1;fillColor=#fad7ac;strokeColor=#b46504;" parent="1" vertex="1">
          <mxGeometry x="1050" y="350" width="420" height="50" as="geometry">
            <mxRectangle x="220" y="120" width="160" height="26" as="alternateBounds" />
          </mxGeometry>
        </mxCell>
        <mxCell id="fiVs_0KenUPg4ujk_l5u-4" value="&lt;b&gt;class parent communes à tous&lt;/b&gt;" style="text;html=1;align=center;verticalAlign=middle;resizable=0;points=[];autosize=1;strokeColor=#b46504;fillColor=#fad7ac;" parent="1" vertex="1">
          <mxGeometry x="1050" y="330" width="190" height="20" as="geometry" />
        </mxCell>
        <mxCell id="5MuHuASrRkuSCfwb6xZp-1" value="Box Legend&lt;br&gt;&lt;br&gt;&lt;br&gt;&lt;br&gt;&lt;br&gt;&lt;br&gt;&lt;br&gt;&lt;br&gt;&lt;br&gt;&lt;br&gt;&lt;br&gt;&lt;br&gt;&lt;br&gt;" style="rounded=0;whiteSpace=wrap;html=1;align=left;" parent="1" vertex="1">
          <mxGeometry x="1490" y="10" width="280" height="310" as="geometry" />
        </mxCell>
        <mxCell id="5MuHuASrRkuSCfwb6xZp-2" value="Entity Name" style="swimlane;fontStyle=0;align=center;verticalAlign=top;childLayout=stackLayout;horizontal=1;startSize=29;horizontalStack=0;resizeParent=1;resizeLast=0;collapsible=1;marginBottom=0;rounded=0;shadow=0;strokeWidth=1;fillColor=#f5f5f5;strokeColor=#666666;fontColor=#333333;" parent="1" vertex="1">
          <mxGeometry x="1500" y="140" width="260" height="149" as="geometry">
            <mxRectangle x="130" y="380" width="160" height="26" as="alternateBounds" />
          </mxGeometry>
        </mxCell>
        <mxCell id="5MuHuASrRkuSCfwb6xZp-4" value="Liste des attributs" style="rounded=1;whiteSpace=wrap;html=1;fillColor=#f5f5f5;strokeColor=#666666;fontColor=#333333;" parent="5MuHuASrRkuSCfwb6xZp-2" vertex="1">
          <mxGeometry y="29" width="260" height="60" as="geometry" />
        </mxCell>
        <mxCell id="5MuHuASrRkuSCfwb6xZp-5" value="Liste des fonctions attendues" style="rounded=0;whiteSpace=wrap;html=1;fillColor=#f5f5f5;strokeColor=#666666;fontColor=#333333;" parent="5MuHuASrRkuSCfwb6xZp-2" vertex="1">
          <mxGeometry y="89" width="260" height="60" as="geometry" />
        </mxCell>
        <mxCell id="5MuHuASrRkuSCfwb6xZp-6" value="KeyboardInput" style="swimlane;fontStyle=2;align=center;verticalAlign=top;childLayout=stackLayout;horizontal=1;startSize=26;horizontalStack=0;resizeParent=1;resizeLast=0;collapsible=1;marginBottom=0;rounded=0;shadow=0;strokeWidth=1;fillColor=#fad7ac;strokeColor=#b46504;" parent="1" vertex="1">
          <mxGeometry x="980" y="475" width="180" height="110" as="geometry">
            <mxRectangle x="220" y="120" width="160" height="26" as="alternateBounds" />
          </mxGeometry>
        </mxCell>
        <mxCell id="_NyGIHeXLl2OC_w_EAMj-1" value="list de Component InputMapping" style="text;html=1;align=center;verticalAlign=middle;resizable=0;points=[];autosize=1;strokeColor=#b46504;fillColor=#fad7ac;" parent="5MuHuASrRkuSCfwb6xZp-6" vertex="1">
          <mxGeometry y="26" width="180" height="20" as="geometry" />
        </mxCell>
        <mxCell id="yY6cxoOYX3-UAB0nJNnQ-1" value="MouseInput" style="swimlane;fontStyle=2;align=center;verticalAlign=top;childLayout=stackLayout;horizontal=1;startSize=26;horizontalStack=0;resizeParent=1;resizeLast=0;collapsible=1;marginBottom=0;rounded=0;shadow=0;strokeWidth=1;fillColor=#d5e8d4;strokeColor=#82b366;" parent="1" vertex="1">
          <mxGeometry x="1170" y="475" width="180" height="110" as="geometry">
            <mxRectangle x="220" y="120" width="160" height="26" as="alternateBounds" />
          </mxGeometry>
        </mxCell>
        <mxCell id="yY6cxoOYX3-UAB0nJNnQ-2" value="SoundPlayer" style="swimlane;fontStyle=2;align=center;verticalAlign=top;childLayout=stackLayout;horizontal=1;startSize=26;horizontalStack=0;resizeParent=1;resizeLast=0;collapsible=1;marginBottom=0;rounded=0;shadow=0;strokeWidth=1;fillColor=#d5e8d4;strokeColor=#82b366;" parent="1" vertex="1">
          <mxGeometry x="1360" y="475" width="180" height="110" as="geometry">
            <mxRectangle x="220" y="120" width="160" height="26" as="alternateBounds" />
          </mxGeometry>
        </mxCell>
        <mxCell id="UfVxF6C4GZ5vk42KEXQt-2" value="Service = singleton" style="rounded=0;whiteSpace=wrap;html=1;fillColor=#fad7ac;strokeColor=#b46504;" parent="1" vertex="1">
          <mxGeometry x="1350" y="330" width="120" height="20" as="geometry" />
        </mxCell>
        <mxCell id="Yh8Mto5pGX5aQWVLsobj-1" value="&lt;h1&gt;Service&lt;/h1&gt;&lt;p&gt;Un objet &lt;b&gt;Service&lt;/b&gt; est un &lt;i&gt;singleton&lt;/i&gt;&amp;nbsp;qui est géré dans un processus différents du &lt;i&gt;GameLoop&lt;/i&gt;.&lt;/p&gt;&lt;p&gt;&lt;span style=&quot;background-color: initial;&quot;&gt;Toutes les classes représentant un objet &lt;b&gt;Service&lt;/b&gt; doivent héritées de l&#39;interface &lt;b&gt;IService&lt;/b&gt;&lt;/span&gt;&lt;br&gt;&lt;/p&gt;&lt;p&gt;Un objet &lt;b&gt;Service&lt;/b&gt; est utilisé pour gérer les &lt;i&gt;i&lt;/i&gt;&lt;i style=&quot;&quot;&gt;nput/&lt;/i&gt;o&lt;i&gt;uput&lt;/i&gt;&amp;nbsp;excepté l&#39;affichage à l&#39;écran :&lt;br&gt;&lt;span style=&quot;white-space: pre;&quot;&gt; &lt;/span&gt;- &lt;i&gt;Input&lt;/i&gt; du clavier ou de la souris&lt;br&gt;&lt;span style=&quot;white-space: pre;&quot;&gt; &lt;/span&gt;- &lt;i&gt;Output &lt;/i&gt;pour le son&lt;br&gt;&lt;span style=&quot;white-space: pre;&quot;&gt; &lt;/span&gt;- Communication avec un &lt;i&gt;Server&lt;/i&gt;&lt;br&gt;&lt;/p&gt;" style="text;html=1;strokeColor=#0e8088;fillColor=#b0e3e6;spacing=5;spacingTop=-20;whiteSpace=wrap;overflow=hidden;rounded=0;" parent="1" vertex="1">
          <mxGeometry x="830" y="10" width="660" height="170" as="geometry" />
        </mxCell>
      </root>
    </mxGraphModel>
  </diagram>
  <diagram id="csts9FwN2wikg6sLliGG" name="Views">
    <mxGraphModel dx="1787" dy="587" grid="1" gridSize="10" guides="1" tooltips="1" connect="1" arrows="1" fold="1" page="1" pageScale="1" pageWidth="827" pageHeight="1169" math="0" shadow="0">
      <root>
        <mxCell id="0" />
        <mxCell id="1" parent="0" />
        <mxCell id="5JsaU8tClTJpNXfW93gl-1" value="" style="group" parent="1" vertex="1" connectable="0">
          <mxGeometry x="-770" y="170" width="660" height="140" as="geometry" />
        </mxCell>
        <mxCell id="5JsaU8tClTJpNXfW93gl-2" value="Color Legend&lt;br&gt;&lt;br&gt;&lt;br&gt;&lt;br&gt;&lt;br&gt;&lt;br&gt;&lt;br&gt;&lt;br&gt;" style="rounded=0;whiteSpace=wrap;html=1;align=left;" parent="5JsaU8tClTJpNXfW93gl-1" vertex="1">
          <mxGeometry width="660" height="140" as="geometry" />
        </mxCell>
        <mxCell id="5JsaU8tClTJpNXfW93gl-3" value="under development" style="rounded=0;whiteSpace=wrap;html=1;fillColor=#ffe6cc;strokeColor=#d79b00;" parent="5JsaU8tClTJpNXfW93gl-1" vertex="1">
          <mxGeometry x="345" y="60" width="120" height="60" as="geometry" />
        </mxCell>
        <mxCell id="5JsaU8tClTJpNXfW93gl-4" value="designed" style="rounded=0;whiteSpace=wrap;html=1;fillColor=#dae8fc;strokeColor=#6c8ebf;" parent="5JsaU8tClTJpNXfW93gl-1" vertex="1">
          <mxGeometry x="180" y="60" width="120" height="60" as="geometry" />
        </mxCell>
        <mxCell id="5JsaU8tClTJpNXfW93gl-5" value="developped" style="rounded=0;whiteSpace=wrap;html=1;fillColor=#e1d5e7;strokeColor=#9673a6;" parent="5JsaU8tClTJpNXfW93gl-1" vertex="1">
          <mxGeometry x="530" y="60" width="120" height="60" as="geometry" />
        </mxCell>
        <mxCell id="5JsaU8tClTJpNXfW93gl-6" value="lack of design" style="rounded=0;whiteSpace=wrap;html=1;fillColor=#d5e8d4;strokeColor=#82b366;" parent="5JsaU8tClTJpNXfW93gl-1" vertex="1">
          <mxGeometry x="20" y="60" width="120" height="60" as="geometry" />
        </mxCell>
        <mxCell id="5JsaU8tClTJpNXfW93gl-7" value="&lt;h1&gt;Views&lt;/h1&gt;" style="text;html=1;strokeColor=#0e8088;fillColor=#b0e3e6;spacing=5;spacingTop=-20;whiteSpace=wrap;overflow=hidden;rounded=0;" parent="1" vertex="1">
          <mxGeometry x="-770" y="20" width="660" height="150" as="geometry" />
        </mxCell>
        <mxCell id="FJ5OWyiUQOaD8y7Wmo70-2" value="Home" style="rounded=0;whiteSpace=wrap;html=1;" parent="1" vertex="1">
          <mxGeometry x="-533" y="360" width="120" height="60" as="geometry" />
        </mxCell>
        <mxCell id="FJ5OWyiUQOaD8y7Wmo70-3" value="General Settings" style="rounded=0;whiteSpace=wrap;html=1;" parent="1" vertex="1">
          <mxGeometry x="-680" y="460" width="120" height="60" as="geometry" />
        </mxCell>
        <mxCell id="FJ5OWyiUQOaD8y7Wmo70-4" value="InGame" style="rounded=0;whiteSpace=wrap;html=1;" parent="1" vertex="1">
          <mxGeometry x="-400" y="460" width="120" height="60" as="geometry" />
        </mxCell>
        <mxCell id="FJ5OWyiUQOaD8y7Wmo70-5" value="" style="endArrow=classic;startArrow=classic;html=1;rounded=0;entryX=0;entryY=1;entryDx=0;entryDy=0;exitX=1;exitY=0;exitDx=0;exitDy=0;" parent="1" source="FJ5OWyiUQOaD8y7Wmo70-3" target="FJ5OWyiUQOaD8y7Wmo70-2" edge="1">
          <mxGeometry width="50" height="50" relative="1" as="geometry">
            <mxPoint x="-590" y="450" as="sourcePoint" />
            <mxPoint x="-540" y="400" as="targetPoint" />
          </mxGeometry>
        </mxCell>
        <mxCell id="FJ5OWyiUQOaD8y7Wmo70-6" value="" style="endArrow=classic;startArrow=classic;html=1;rounded=0;entryX=1;entryY=1;entryDx=0;entryDy=0;exitX=0;exitY=0;exitDx=0;exitDy=0;" parent="1" source="FJ5OWyiUQOaD8y7Wmo70-4" target="FJ5OWyiUQOaD8y7Wmo70-2" edge="1">
          <mxGeometry width="50" height="50" relative="1" as="geometry">
            <mxPoint x="-300" y="420" as="sourcePoint" />
            <mxPoint x="-250" y="370" as="targetPoint" />
          </mxGeometry>
        </mxCell>
        <mxCell id="FJ5OWyiUQOaD8y7Wmo70-7" value="InGame Settings" style="rounded=0;whiteSpace=wrap;html=1;" parent="1" vertex="1">
          <mxGeometry x="-400" y="580" width="120" height="60" as="geometry" />
        </mxCell>
        <mxCell id="FJ5OWyiUQOaD8y7Wmo70-8" value="" style="endArrow=classic;startArrow=classic;html=1;rounded=0;entryX=0.5;entryY=1;entryDx=0;entryDy=0;exitX=0.5;exitY=0;exitDx=0;exitDy=0;" parent="1" source="FJ5OWyiUQOaD8y7Wmo70-7" target="FJ5OWyiUQOaD8y7Wmo70-4" edge="1">
          <mxGeometry width="50" height="50" relative="1" as="geometry">
            <mxPoint x="-390" y="470" as="sourcePoint" />
            <mxPoint x="-403" y="430" as="targetPoint" />
          </mxGeometry>
        </mxCell>
      </root>
    </mxGraphModel>
  </diagram>
</mxfile>
